<?xml version="1.0" encoding="utf-8"?>
<!-- Generator: Adobe Illustrator 10.0.3, SVG Export Plug-In . SVG Version: 3.0.0 Build 77)  -->
<!DOCTYPE svg PUBLIC "-//W3C//DTD SVG 1.0//EN"    "http://www.w3.org/TR/2001/REC-SVG-20010904/DTD/svg10.dtd" [
	<!ENTITY ns_flows "http://ns.adobe.com/Flows/1.0/">
	<!ENTITY ns_extend "http://ns.adobe.com/Extensibility/1.0/">
	<!ENTITY ns_ai "http://ns.adobe.com/AdobeIllustrator/10.0/">
	<!ENTITY ns_graphs "http://ns.adobe.com/Graphs/1.0/">
	<!ENTITY ns_vars "http://ns.adobe.com/Variables/1.0/">
	<!ENTITY ns_imrep "http://ns.adobe.com/ImageReplacement/1.0/">
	<!ENTITY ns_sfw "http://ns.adobe.com/SaveForWeb/1.0/">
	<!ENTITY ns_custom "http://ns.adobe.com/GenericCustomNamespace/1.0/">
	<!ENTITY ns_adobe_xpath "http://ns.adobe.com/XPath/1.0/">
	<!ENTITY ns_svg "http://www.w3.org/2000/svg">
	<!ENTITY ns_xlink "http://www.w3.org/1999/xlink">
]>
<svg  xmlns:x="&ns_extend;" xmlns:i="&ns_ai;" xmlns:graph="&ns_graphs;"
	 xmlns="&ns_svg;" xmlns:xlink="&ns_xlink;" xmlns:a="http://ns.adobe.com/AdobeSVGViewerExtensions/3.0/"
	 width="75" height="87.27" viewBox="0 0 75 87.27" style="overflow:visible;enable-background:new 0 0 75 87.27"
	 xml:space="preserve">
	<metadata>
		<sfw  xmlns="&ns_sfw;">
			<slices></slices>
			<sliceSourceBounds  y="296.183" x="393.299" width="75" height="87.27" bottomLeftOrigin="true"></sliceSourceBounds>
		</sfw>
	</metadata>
	<g id="Layer_1">
		<g>
			
				<radialGradient id="XMLID_1_" cx="-393.9009" cy="407.4482" r="20.1283" fx="-393.9009" fy="407.4482" gradientTransform="matrix(0.922 0 0 0.6279 399.5678 -182.0674)" gradientUnits="userSpaceOnUse">
				<stop  offset="0" style="stop-color:#000000"/>
				<stop  offset="0.1011" style="stop-color:#000000"/>
				<stop  offset="0.1775" style="stop-color:#090909"/>
				<stop  offset="0.3008" style="stop-color:#212121"/>
				<stop  offset="0.4557" style="stop-color:#474747"/>
				<stop  offset="0.6361" style="stop-color:#7D7D7D"/>
				<stop  offset="0.8354" style="stop-color:#C1C1C1"/>
				<stop  offset="1" style="stop-color:#FFFFFF"/>
				<a:midPointStop  offset="0" style="stop-color:#000000"/>
				<a:midPointStop  offset="0.5" style="stop-color:#000000"/>
				<a:midPointStop  offset="0.1011" style="stop-color:#000000"/>
				<a:midPointStop  offset="0.6025" style="stop-color:#000000"/>
				<a:midPointStop  offset="1" style="stop-color:#FFFFFF"/>
			</radialGradient>
			<path style="fill:url(#XMLID_1_);" d="M56.215,73.77c0,7.455-8.877,13.5-19.824,13.5s-19.822-6.045-19.822-13.5
				s8.875-13.5,19.822-13.5S56.215,66.314,56.215,73.77z"/>
			<path style="fill:#0000FF;" d="M75,37.5C75,58.211,58.211,75,37.5,75C16.791,75,0,58.211,0,37.5S16.791,0,37.5,0
				C58.211,0,75,16.789,75,37.5z"/>
			<path style="fill:#0000FF;" d="M72.158,29.166c6.598,10.517-0.459,28.365-16.1,38.173c-15.639,9.808-33.945,7.864-40.541-2.651
				c-6.594-10.517,0.74-26.996,16.381-36.804C47.541,18.075,65.568,18.649,72.158,29.166z"/>
			<path style="fill:#0101FF;" d="M72.104,29.288c6.574,10.479-0.461,28.266-16.049,38.04c-15.586,9.775-33.83,7.841-40.402-2.638
				c-6.57-10.479,0.74-26.9,16.328-36.675C47.572,18.239,65.537,18.81,72.104,29.288z"/>
			<path style="fill:#0202FF;" d="M72.049,29.412c6.551,10.441-0.461,28.165-15.998,37.907c-15.533,9.741-33.715,7.816-40.262-2.624
				c-6.547-10.441,0.74-26.806,16.275-36.548C47.604,18.405,65.506,18.971,72.049,29.412z"/>
			<path style="fill:#0303FE;" d="M71.994,29.534C78.52,39.938,71.529,57.6,56.047,67.309c-15.48,9.709-33.6,7.793-40.123-2.61
				C9.4,54.296,16.666,37.988,32.148,28.279C47.633,18.569,65.475,19.132,71.994,29.534z"/>
			<path style="fill:#0304FE;" d="M71.939,29.657c6.502,10.365-0.465,27.966-15.896,37.642c-15.43,9.676-33.484,7.769-39.984-2.597
				c-6.498-10.365,0.742-26.615,16.174-36.291C47.664,18.734,65.445,19.292,71.939,29.657z"/>
			<path style="fill:#0405FE;" d="M71.885,29.78c6.479,10.328-0.467,27.866-15.846,37.509c-15.375,9.644-33.367,7.745-39.846-2.583
				c-6.475-10.327,0.742-26.52,16.121-36.162C47.695,18.899,65.414,19.453,71.885,29.78z"/>
			<path style="fill:#0506FE;" d="M71.83,29.904c6.455,10.289-0.469,27.765-15.793,37.375c-15.324,9.609-33.254,7.72-39.707-2.568
				c-6.453-10.29,0.742-26.426,16.068-36.035C47.727,19.064,65.383,19.614,71.83,29.904z"/>
			<path style="fill:#0607FD;" d="M71.775,30.026c6.432,10.251-0.469,27.665-15.742,37.242s-33.139,7.695-39.568-2.555
				c-6.428-10.251,0.742-26.33,16.016-35.907C47.756,19.229,65.352,19.774,71.775,30.026z"/>
			<path style="fill:#0708FD;" d="M71.721,30.149c6.408,10.213-0.473,27.564-15.693,37.108c-15.219,9.545-33.021,7.672-39.428-2.54
				c-6.404-10.214,0.744-26.234,15.965-35.779C47.787,19.394,65.32,19.935,71.721,30.149z"/>
			<path style="fill:#0809FD;" d="M71.666,30.271c6.383,10.176-0.473,27.465-15.643,36.977c-15.166,9.512-32.906,7.647-39.289-2.527
				c-6.381-10.175,0.744-26.139,15.912-35.65C47.818,19.558,65.289,20.096,71.666,30.271z"/>
			<path style="fill:#090AFD;" d="M71.611,30.396c6.361,10.138-0.475,27.365-15.59,36.843c-15.115,9.479-32.793,7.624-39.15-2.513
				c-6.357-10.138,0.744-26.044,15.861-35.522C47.85,19.724,65.258,20.257,71.611,30.396z"/>
			<path style="fill:#0A0BFC;" d="M71.557,30.518c6.336,10.101-0.477,27.266-15.539,36.711s-32.678,7.6-39.012-2.5
				S17.75,38.78,32.814,29.335C47.879,19.888,65.229,20.417,71.557,30.518z"/>
			<path style="fill:#0A0CFC;" d="M71.502,30.641c6.312,10.062-0.479,27.164-15.488,36.577s-32.562,7.576-38.873-2.485
				s0.744-25.854,15.756-35.267C47.91,20.053,65.197,20.578,71.502,30.641z"/>
			<path style="fill:#0B0DFC;" d="M71.447,30.765c6.289,10.024-0.479,27.063-15.438,36.444c-14.957,9.38-32.447,7.552-38.732-2.472
				c-6.285-10.024,0.744-25.759,15.703-35.139C47.941,20.218,65.166,20.739,71.447,30.765z"/>
			<path style="fill:#0C0EFC;" d="M71.393,30.887c6.266,9.986-0.48,26.964-15.387,36.312c-14.904,9.347-32.332,7.528-38.594-2.457
				c-6.262-9.987,0.746-25.664,15.652-35.011C47.973,20.382,65.135,20.9,71.393,30.887z"/>
			<path style="fill:#0D0FFB;" d="M71.338,31.01c6.242,9.948-0.482,26.863-15.336,36.179c-14.854,9.313-32.217,7.504-38.455-2.444
				s0.746-25.568,15.6-34.882C48.002,20.546,65.104,21.062,71.338,31.01z"/>
			<path style="fill:#0E10FB;" d="M71.283,31.132c6.217,9.911-0.484,26.765-15.285,36.046s-32.102,7.48-38.316-2.43
				c-6.215-9.911,0.746-25.474,15.549-34.754C48.033,20.711,65.072,21.222,71.283,31.132z"/>
			<path style="fill:#0F11FB;" d="M71.229,31.255c6.193,9.873-0.486,26.664-15.234,35.913c-14.748,9.248-31.986,7.456-38.178-2.417
				c-6.189-9.873,0.748-25.377,15.496-34.626C48.064,20.875,65.041,21.382,71.229,31.255z"/>
			<path style="fill:#1012FB;" d="M71.174,31.378c6.17,9.836-0.486,26.564-15.184,35.78c-14.695,9.216-31.869,7.433-38.037-2.402
				s0.748-25.282,15.443-34.498C48.096,21.041,65.012,21.544,71.174,31.378z"/>
			<path style="fill:#1013FA;" d="M71.119,31.501c6.146,9.798-0.488,26.464-15.133,35.647c-14.643,9.183-31.754,7.408-37.898-2.389
				c-6.143-9.798,0.748-25.187,15.393-34.37C48.127,21.206,64.98,21.704,71.119,31.501z"/>
			<path style="fill:#1114FA;" d="M71.064,31.624c6.123,9.76-0.49,26.363-15.082,35.514c-14.59,9.15-31.639,7.385-37.76-2.375
				c-6.119-9.759,0.748-25.091,15.34-34.241C48.156,21.37,64.949,21.864,71.064,31.624z"/>
			<path style="fill:#1215FA;" d="M71.01,31.748c6.1,9.722-0.492,26.264-15.029,35.38c-14.539,9.118-31.525,7.361-37.621-2.359
				c-6.098-9.722,0.748-24.997,15.287-34.114C48.188,21.536,64.918,22.026,71.01,31.748z"/>
			<path style="fill:#1316FA;" d="M70.955,31.87c6.076,9.685-0.492,26.164-14.98,35.248c-14.484,9.084-31.408,7.336-37.48-2.347
				c-6.072-9.684,0.75-24.901,15.236-33.986C48.219,21.7,64.887,22.187,70.955,31.87z"/>
			<path style="fill:#1417FA;" d="M70.9,31.993c6.051,9.646-0.494,26.063-14.93,35.114c-14.432,9.052-31.293,7.312-37.342-2.332
				c-6.049-9.646,0.75-24.807,15.184-33.858C48.25,21.865,64.857,22.347,70.9,31.993z"/>
			<path style="fill:#1518F9;" d="M70.846,32.115c6.027,9.608-0.496,25.964-14.879,34.982c-14.379,9.019-31.178,7.288-37.203-2.319
				s0.75-24.711,15.133-33.729C48.279,22.029,64.824,22.508,70.846,32.115z"/>
			<path style="fill:#1619F9;" d="M70.791,32.238c6.004,9.57-0.498,25.863-14.828,34.849c-14.326,8.986-31.062,7.265-37.064-2.305
				c-6-9.57,0.752-24.616,15.08-33.602C48.311,22.194,64.795,22.668,70.791,32.238z"/>
			<path style="fill:#171AF9;" d="M70.738,32.361c5.979,9.533-0.502,25.764-14.777,34.717c-14.277,8.952-30.949,7.239-36.926-2.292
				c-5.979-9.532,0.75-24.521,15.027-33.473C48.342,22.359,64.764,22.829,70.738,32.361z"/>
			<path style="fill:#171BF9;" d="M70.682,32.485c5.957,9.494-0.5,25.663-14.727,34.582c-14.223,8.92-30.832,7.216-36.785-2.277
				c-5.953-9.495,0.752-24.426,14.977-33.346C48.373,22.524,64.732,22.99,70.682,32.485z"/>
			<path style="fill:#181CF8;" d="M70.627,32.607c5.932,9.457-0.502,25.563-14.676,34.45c-14.17,8.887-30.717,7.191-36.646-2.264
				c-5.93-9.457,0.752-24.331,14.926-33.218C48.402,22.688,64.701,23.15,70.627,32.607z"/>
			<path style="fill:#191DF8;" d="M70.574,32.73c5.908,9.419-0.506,25.464-14.625,34.317c-14.117,8.854-30.602,7.168-36.508-2.249
				c-5.906-9.42,0.752-24.235,14.871-33.09C48.436,22.854,64.67,23.312,70.574,32.73z"/>
			<path style="fill:#1A1EF8;" d="M70.518,32.854c5.885,9.381-0.506,25.363-14.572,34.185c-14.066,8.82-30.486,7.144-36.369-2.236
				c-5.883-9.382,0.752-24.14,14.82-32.961C48.465,23.019,64.641,23.472,70.518,32.854z"/>
			<path style="fill:#1B1FF8;" d="M70.463,32.976c5.861,9.344-0.508,25.264-14.521,34.052s-30.371,7.12-36.23-2.222
				c-5.859-9.344,0.754-24.045,14.768-32.833C48.496,23.184,64.609,23.633,70.463,32.976z"/>
			<path style="fill:#1C20F7;" d="M70.408,33.099c5.838,9.305-0.508,25.163-14.473,33.919c-13.959,8.755-30.254,7.096-36.09-2.209
				c-5.834-9.306,0.754-23.949,14.717-32.705S64.578,23.793,70.408,33.099z"/>
			<path style="fill:#1D21F7;" d="M70.354,33.221c5.814,9.268-0.512,25.064-14.42,33.786c-13.908,8.723-30.141,7.072-35.953-2.194
				c-5.811-9.268,0.754-23.854,14.664-32.577C48.557,23.513,64.547,23.953,70.354,33.221z"/>
			<path style="fill:#1D22F7;" d="M70.299,33.345c5.791,9.229-0.512,24.964-14.369,33.652c-13.855,8.689-30.025,7.049-35.812-2.181
				c-5.787-9.229,0.754-23.759,14.611-32.448C48.588,23.678,64.516,24.115,70.299,33.345z"/>
			<path style="fill:#1E23F7;" d="M70.244,33.468c5.768,9.191-0.514,24.863-14.318,33.52c-13.803,8.656-29.91,7.024-35.674-2.167
				s0.754-23.664,14.561-32.32C48.619,23.843,64.484,24.275,70.244,33.468z"/>
			<path style="fill:#1F24F6;" d="M70.189,33.591c5.742,9.153-0.516,24.763-14.268,33.386c-13.75,8.624-29.795,7-35.535-2.152
				c-5.74-9.154,0.756-23.569,14.508-32.192C48.65,24.007,64.453,24.437,70.189,33.591z"/>
			<path style="fill:#2025F6;" d="M70.135,33.714c5.719,9.116-0.516,24.662-14.217,33.254c-13.697,8.591-29.678,6.976-35.395-2.139
				c-5.717-9.116,0.756-23.475,14.455-32.065C48.68,24.173,64.424,24.599,70.135,33.714z"/>
			<path style="fill:#2126F6;" d="M70.08,33.837c5.695,9.078-0.518,24.562-14.166,33.12c-13.646,8.558-29.564,6.952-35.256-2.125
				c-5.693-9.078,0.756-23.379,14.404-31.937C48.711,24.337,64.393,24.759,70.08,33.837z"/>
			<path style="fill:#2227F6;" d="M70.025,33.959C75.697,43,69.506,58.422,55.91,66.947c-13.594,8.524-29.449,6.928-35.117-2.111
				c-5.668-9.041,0.758-23.284,14.352-31.809C48.742,24.502,64.361,24.919,70.025,33.959z"/>
			<path style="fill:#2328F5;" d="M69.971,34.082c5.648,9.003-0.521,24.362-14.064,32.854c-13.541,8.492-29.334,6.904-34.979-2.098
				s0.758-23.188,14.301-31.68C48.773,24.666,64.33,25.08,69.971,34.082z"/>
			<path style="fill:#2329F5;" d="M69.916,34.204c5.625,8.965-0.523,24.263-14.014,32.723c-13.488,8.459-29.219,6.88-34.84-2.084
				c-5.621-8.965,0.758-23.093,14.248-31.552C48.803,24.831,64.299,25.24,69.916,34.204z"/>
			<path style="fill:#242AF5;" d="M69.861,34.329c5.602,8.926-0.523,24.161-13.963,32.588c-13.436,8.426-29.102,6.856-34.699-2.07
				s0.758-22.997,14.195-31.424C48.834,24.996,64.268,25.401,69.861,34.329z"/>
			<path style="fill:#252BF5;" d="M69.807,34.451c5.578,8.889-0.525,24.062-13.912,32.456c-13.383,8.393-28.986,6.832-34.561-2.056
				c-5.574-8.89,0.758-22.903,14.145-31.297S64.236,25.562,69.807,34.451z"/>
			<path style="fill:#262CF4;" d="M69.752,34.574c5.555,8.851-0.527,23.962-13.861,32.322c-13.33,8.36-28.871,6.809-34.422-2.042
				c-5.551-8.852,0.76-22.808,14.092-31.168C48.896,25.325,64.207,25.723,69.752,34.574z"/>
			<path style="fill:#272DF4;" d="M69.699,34.697c5.529,8.813-0.529,23.862-13.812,32.19c-13.277,8.327-28.756,6.783-34.281-2.028
				c-5.527-8.813,0.76-22.713,14.039-31.04C48.928,25.491,64.176,25.884,69.699,34.697z"/>
			<path style="fill:#282EF4;" d="M69.645,34.819c5.504,8.776-0.533,23.763-13.76,32.058s-28.641,6.76-34.145-2.015
				s0.76-22.616,13.988-30.911C48.959,25.655,64.145,26.045,69.645,34.819z"/>
			<path style="fill:#292FF4;" d="M69.588,34.942c5.482,8.738-0.531,23.662-13.707,31.924s-28.525,6.736-34.006-2
				c-5.479-8.737,0.76-22.521,13.936-30.784C48.988,25.82,64.113,26.205,69.588,34.942z"/>
			<path style="fill:#2A30F4;" d="M69.533,35.064C74.992,43.766,69,58.627,55.877,66.856c-13.123,8.229-28.41,6.712-33.867-1.987
				c-5.455-8.699,0.76-22.426,13.885-30.655C49.02,25.983,64.082,26.365,69.533,35.064z"/>
			<path style="fill:#2A31F3;" d="M69.479,35.188c5.436,8.662-0.535,23.462-13.605,31.657c-13.07,8.196-28.295,6.688-33.729-1.973
				c-5.432-8.661,0.762-22.331,13.832-30.527C49.049,26.148,64.051,26.526,69.479,35.188z"/>
			<path style="fill:#2B32F3;" d="M69.424,35.312c5.412,8.623-0.537,23.362-13.555,31.525s-28.18,6.663-33.588-1.96
				s0.762-22.235,13.779-30.398C49.08,26.313,64.02,26.688,69.424,35.312z"/>
			<path style="fill:#2C33F3;" d="M69.369,35.435c5.389,8.585-0.539,23.262-13.504,31.392s-28.064,6.64-33.449-1.944
				c-5.385-8.587,0.762-22.141,13.729-30.271C49.111,26.479,63.99,26.848,69.369,35.435z"/>
			<path style="fill:#2D34F3;" d="M69.314,35.557c5.363,8.548-0.539,23.162-13.453,31.26c-12.912,8.098-27.949,6.615-33.311-1.933
				c-5.359-8.548,0.762-22.045,13.676-30.143C49.141,26.643,63.959,27.008,69.314,35.557z"/>
			<path style="fill:#2E35F2;" d="M69.26,35.681c5.34,8.51-0.541,23.062-13.402,31.126c-12.859,8.064-27.834,6.592-33.172-1.918
				c-5.336-8.511,0.764-21.95,13.625-30.015C49.174,26.808,63.928,27.169,69.26,35.681z"/>
			<path style="fill:#2F36F2;" d="M69.205,35.804c5.316,8.473-0.543,22.962-13.352,30.993c-12.807,8.032-27.717,6.567-33.031-1.904
				c-5.312-8.473,0.764-21.854,13.572-29.887S63.896,27.33,69.205,35.804z"/>
			<path style="fill:#3037F2;" d="M69.15,35.926c5.293,8.435-0.545,22.862-13.301,30.86c-12.754,7.999-27.604,6.544-32.893-1.89
				c-5.289-8.435,0.764-21.76,13.52-29.759C49.234,27.138,63.865,27.491,69.15,35.926z"/>
			<path style="fill:#3038F2;" d="M69.096,36.048c5.268,8.397-0.547,22.763-13.25,30.728c-12.701,7.967-27.488,6.521-32.754-1.876
				s0.764-21.664,13.469-29.631S63.834,27.651,69.096,36.048z"/>
			<path style="fill:#3139F1;" d="M69.041,36.172c5.244,8.359-0.547,22.661-13.199,30.595c-12.648,7.933-27.371,6.495-32.615-1.862
				c-5.24-8.359,0.766-21.569,13.416-29.503C49.297,27.467,63.805,27.812,69.041,36.172z"/>
			<path style="fill:#323AF1;" d="M68.986,36.295c5.223,8.321-0.549,22.562-13.148,30.462c-12.596,7.9-27.256,6.472-32.475-1.849
				s0.766-21.475,13.363-29.375C49.328,27.633,63.773,27.975,68.986,36.295z"/>
			<path style="fill:#333BF1;" d="M68.932,36.418c5.197,8.282-0.551,22.461-13.098,30.328c-12.545,7.867-27.141,6.448-32.336-1.834
				c-5.195-8.283,0.766-21.38,13.311-29.247C49.357,27.797,63.742,28.135,68.932,36.418z"/>
			<path style="fill:#343CF1;" d="M68.877,36.54c5.174,8.245-0.553,22.361-13.047,30.195c-12.492,7.835-27.025,6.424-32.197-1.82
				c-5.172-8.245,0.766-21.284,13.26-29.118C49.389,27.961,63.711,28.295,68.877,36.54z"/>
			<path style="fill:#353DF0;" d="M68.822,36.663c5.15,8.208-0.555,22.262-12.994,30.062c-12.441,7.802-26.912,6.4-32.061-1.807
				c-5.146-8.207,0.768-21.188,13.209-28.99C49.42,28.126,63.68,28.456,68.822,36.663z"/>
			<path style="fill:#363EF0;" d="M68.77,36.787c5.125,8.169-0.557,22.16-12.945,29.93c-12.389,7.769-26.797,6.376-31.92-1.794
				c-5.123-8.169,0.766-21.093,13.156-28.861C49.451,28.292,63.65,28.617,68.77,36.787z"/>
			<path style="fill:#373FF0;" d="M68.715,36.909c5.102,8.132-0.559,22.061-12.895,29.797c-12.336,7.735-26.682,6.353-31.781-1.779
				s0.768-20.998,13.104-28.734C49.48,28.456,63.619,28.777,68.715,36.909z"/>
			<path style="fill:#3740F0;" d="M68.658,37.031c5.078,8.095-0.559,21.961-12.844,29.664c-12.281,7.703-26.564,6.328-31.641-1.766
				s0.768-20.902,13.051-28.605C49.512,28.62,63.586,28.938,68.658,37.031z"/>
			<path style="fill:#3841EF;" d="M68.604,37.154c5.055,8.057-0.561,21.861-12.791,29.531s-26.451,6.304-31.502-1.751
				c-5.053-8.057,0.768-20.809,12.998-28.479C49.543,28.786,63.557,29.099,68.604,37.154z"/>
			<path style="fill:#3942EF;" d="M68.551,37.278c5.029,8.019-0.562,21.761-12.742,29.398c-12.178,7.637-26.334,6.279-31.363-1.738
				c-5.027-8.019,0.77-20.713,12.947-28.35C49.574,28.951,63.525,29.26,68.551,37.278z"/>
			<path style="fill:#3A43EF;" d="M68.494,37.4c5.008,7.981-0.564,21.661-12.689,29.266C43.68,74.27,29.584,72.921,24.58,64.942
				c-5.004-7.981,0.768-20.618,12.896-28.223C49.604,29.115,63.494,29.42,68.494,37.4z"/>
			<path style="fill:#3B44EF;" d="M68.439,37.523c4.982,7.941-0.564,21.561-12.641,29.132c-12.072,7.571-26.104,6.231-31.084-1.71
				c-4.98-7.943,0.77-20.522,12.844-28.094C49.635,29.279,63.463,29.58,68.439,37.523z"/>
			<path style="fill:#3C45EF;" d="M68.385,37.646c4.961,7.904-0.566,21.461-12.588,28.999c-12.02,7.538-25.988,6.208-30.947-1.696
				c-4.957-7.904,0.771-20.427,12.793-27.965C49.666,29.445,63.432,29.742,68.385,37.646z"/>
			<path style="fill:#3D46EE;" d="M68.332,37.771c4.936,7.866-0.568,21.36-12.539,28.865c-11.969,7.506-25.873,6.184-30.807-1.683
				c-4.934-7.865,0.77-20.331,12.74-27.837S63.402,29.903,68.332,37.771z"/>
			<path style="fill:#3D47EE;" d="M68.275,37.893c4.914,7.829-0.57,21.26-12.486,28.733c-11.916,7.472-25.758,6.159-30.668-1.669
				s0.771-20.237,12.688-27.709C49.727,29.774,63.371,30.063,68.275,37.893z"/>
			<path style="fill:#3E48EE;" d="M68.221,38.016c4.889,7.79-0.572,21.159-12.438,28.6c-11.861,7.439-25.641,6.136-30.527-1.655
				c-4.885-7.79,0.771-20.142,12.637-27.581C49.758,29.938,63.338,30.224,68.221,38.016z"/>
			<path style="fill:#3F49EE;" d="M68.166,38.138c4.865,7.754-0.572,21.061-12.385,28.468c-11.811,7.406-25.527,6.112-30.389-1.641
				c-4.863-7.753,0.77-20.047,12.584-27.453C49.789,30.104,63.309,30.385,68.166,38.138z"/>
			<path style="fill:#404AED;" d="M68.113,38.262c4.84,7.716-0.576,20.96-12.336,28.334c-11.758,7.374-25.412,6.088-30.25-1.627
				s0.771-19.951,12.531-27.325C49.82,30.27,63.279,30.546,68.113,38.262z"/>
			<path style="fill:#414BED;" d="M68.057,38.384c4.818,7.678-0.574,20.86-12.283,28.201c-11.705,7.341-25.297,6.064-30.111-1.612
				c-4.814-7.678,0.771-19.855,12.48-27.197C49.85,30.434,63.246,30.706,68.057,38.384z"/>
			<path style="fill:#424CED;" d="M68.002,38.506c4.795,7.641-0.578,20.761-12.232,28.069c-11.652,7.308-25.182,6.04-29.973-1.6
				s0.773-19.76,12.428-27.069C49.881,30.598,63.215,30.866,68.002,38.506z"/>
			<path style="fill:#434DED;" d="M67.947,38.63c4.77,7.602-0.578,20.66-12.182,27.936c-11.6,7.274-25.066,6.016-29.834-1.585
				c-4.766-7.603,0.773-19.665,12.377-26.941C49.912,30.764,63.184,31.027,67.947,38.63z"/>
			<path style="fill:#444EEC;" d="M67.893,38.753c4.748,7.563-0.58,20.561-12.129,27.803s-24.951,5.992-29.695-1.572
				c-4.744-7.563,0.773-19.569,12.322-26.812C49.943,30.929,63.154,31.188,67.893,38.753z"/>
			<path style="fill:#444FEC;" d="M67.838,38.876c4.723,7.525-0.582,20.46-12.08,27.669c-11.494,7.209-24.834,5.968-29.555-1.558
				c-4.721-7.526,0.773-19.475,12.271-26.685C49.975,31.093,63.123,31.349,67.838,38.876z"/>
			<path style="fill:#4550EC;" d="M67.783,38.998c4.699,7.488-0.584,20.36-12.029,27.536c-11.443,7.177-24.721,5.943-29.416-1.544
				c-4.697-7.488,0.773-19.379,12.221-26.556C50.004,31.256,63.092,31.509,67.783,38.998z"/>
			<path style="fill:#4651EC;" d="M67.73,39.122c4.674,7.45-0.586,20.26-11.98,27.403c-11.389,7.143-24.604,5.919-29.275-1.53
				c-4.674-7.451,0.773-19.284,12.166-26.429C50.035,31.422,63.061,31.671,67.73,39.122z"/>
			<path style="fill:#4752EB;" d="M67.676,39.244c4.65,7.413-0.588,20.161-11.928,27.271s-24.49,5.896-29.139-1.517
				c-4.648-7.413,0.775-19.188,12.115-26.3C50.066,31.587,63.031,31.832,67.676,39.244z"/>
			<path style="fill:#4853EB;" d="M67.621,39.367c4.627,7.375-0.59,20.061-11.879,27.138c-11.285,7.077-24.373,5.872-28.998-1.502
				S27.52,45.909,38.807,38.83C50.098,31.751,62.998,31.993,67.621,39.367z"/>
			<path style="fill:#4954EB;" d="M67.564,39.489c4.604,7.338-0.59,19.961-11.826,27.005c-11.232,7.045-24.258,5.848-28.859-1.488
				s0.777-18.999,12.012-26.044C50.127,31.916,62.967,32.153,67.564,39.489z"/>
			<path style="fill:#4A55EB;" d="M67.512,39.613c4.578,7.299-0.592,19.859-11.777,26.872c-11.18,7.011-24.143,5.823-28.719-1.475
				c-4.578-7.299,0.775-18.904,11.959-25.917S62.936,32.314,67.512,39.613z"/>
			<path style="fill:#4A56EA;" d="M67.457,39.736c4.555,7.261-0.594,19.759-11.725,26.739c-11.129,6.979-24.029,5.8-28.582-1.461
				s0.777-18.809,11.908-25.788C50.189,32.246,62.906,32.476,67.457,39.736z"/>
			<path style="fill:#4B57EA;" d="M67.4,39.859c4.533,7.223-0.594,19.658-11.672,26.605c-11.076,6.946-23.914,5.775-28.443-1.447
				s0.777-18.713,11.855-25.66C50.221,32.41,62.875,32.636,67.4,39.859z"/>
			<path style="fill:#4C58EA;" d="M67.346,39.981c4.51,7.186-0.596,19.559-11.621,26.472c-11.023,6.915-23.799,5.753-28.305-1.433
				c-4.506-7.185,0.777-18.617,11.803-25.531C50.25,32.575,62.844,32.796,67.346,39.981z"/>
			<path style="fill:#4D59EA;" d="M67.291,40.105c4.486,7.146-0.598,19.458-11.57,26.338c-10.971,6.883-23.684,5.729-28.164-1.418
				c-4.484-7.147,0.777-18.522,11.75-25.403C50.281,32.74,62.812,32.957,67.291,40.105z"/>
			<path style="fill:#4E5AEA;" d="M67.238,40.229c4.461,7.109-0.6,19.358-11.521,26.206c-10.918,6.849-23.566,5.704-28.025-1.405
				s0.779-18.428,11.699-25.275C50.312,32.905,62.783,33.118,67.238,40.229z"/>
			<path style="fill:#4F5BE9;" d="M67.182,40.35c4.438,7.073-0.6,19.26-11.469,26.074c-10.867,6.816-23.451,5.681-27.887-1.391
				c-4.436-7.072,0.779-18.333,11.648-25.147C50.344,33.069,62.75,33.278,67.182,40.35z"/>
			<path style="fill:#505CE9;" d="M67.127,40.473c4.414,7.034-0.604,19.159-11.418,25.94c-10.814,6.783-23.338,5.657-27.748-1.377
				c-4.412-7.034,0.779-18.237,11.596-25.02S62.721,33.438,67.127,40.473z"/>
			<path style="fill:#515DE9;" d="M67.072,40.596c4.391,6.997-0.604,19.06-11.367,25.808c-10.762,6.751-23.221,5.633-27.607-1.362
				c-4.389-6.997,0.779-18.143,11.543-24.892C50.404,33.399,62.689,33.6,67.072,40.596z"/>
			<path style="fill:#515EE9;" d="M67.02,40.72c4.365,6.959-0.607,18.959-11.318,25.674c-10.709,6.718-23.105,5.608-27.469-1.349
				c-4.363-6.959,0.781-18.047,11.492-24.764S62.658,33.761,67.02,40.72z"/>
			<path style="fill:#525FE8;" d="M66.963,40.842c4.344,6.92-0.607,18.859-11.266,25.542c-10.656,6.685-22.99,5.584-27.33-1.336
				c-4.34-6.921,0.781-17.951,11.439-24.635C50.467,33.729,62.627,33.921,66.963,40.842z"/>
			<path style="fill:#5360E8;" d="M66.908,40.965c4.32,6.882-0.609,18.759-11.215,25.408c-10.604,6.651-22.875,5.561-27.191-1.322
				c-4.316-6.881,0.781-17.855,11.387-24.507C50.496,33.894,62.596,34.082,66.908,40.965z"/>
			<path style="fill:#5461E8;" d="M66.854,41.088c4.295,6.845-0.609,18.659-11.164,25.275c-10.551,6.619-22.76,5.536-27.053-1.308
				c-4.291-6.844,0.783-17.762,11.338-24.379C50.527,34.059,62.566,34.243,66.854,41.088z"/>
			<path style="fill:#5562E8;" d="M66.801,41.212c4.271,6.807-0.613,18.559-11.115,25.142c-10.498,6.586-22.645,5.513-26.912-1.294
				c-4.27-6.806,0.781-17.666,11.283-24.251S62.535,34.404,66.801,41.212z"/>
			<path style="fill:#5663E7;" d="M66.746,41.334c4.246,6.769-0.615,18.458-11.062,25.01c-10.447,6.553-22.531,5.488-26.775-1.28
				c-4.246-6.769,0.783-17.571,11.232-24.123C50.59,34.388,62.504,34.564,66.746,41.334z"/>
			<path style="fill:#5764E7;" d="M66.689,41.456c4.225,6.731-0.615,18.358-11.012,24.877c-10.395,6.52-22.414,5.464-26.635-1.267
				c-4.223-6.73,0.783-17.476,11.18-23.994C50.619,34.553,62.473,34.725,66.689,41.456z"/>
			<path style="fill:#5765E7;" d="M66.637,41.579c4.199,6.694-0.617,18.259-10.961,24.744c-10.344,6.487-22.301,5.44-26.496-1.253
				c-4.199-6.692,0.783-17.38,11.127-23.866S62.441,34.886,66.637,41.579z"/>
			<path style="fill:#5866E7;" d="M66.58,41.702c4.178,6.655-0.617,18.159-10.91,24.611c-10.289,6.454-22.182,5.416-26.355-1.239
				s0.783-17.284,11.076-23.738C50.682,34.883,62.41,35.047,66.58,41.702z"/>
			<path style="fill:#5967E6;" d="M66.527,41.825c4.152,6.618-0.621,18.059-10.859,24.479C45.43,72.725,33.6,71.696,29.449,65.078
				c-4.15-6.617,0.785-17.189,11.023-23.61C50.713,35.048,62.379,35.208,66.527,41.825z"/>
			<path style="fill:#5A68E6;" d="M66.473,41.948c4.127,6.58-0.623,17.959-10.809,24.346c-10.186,6.388-21.953,5.367-26.08-1.212
				S30.369,47.987,40.557,41.6S62.35,35.368,66.473,41.948z"/>
			<path style="fill:#5B69E6;" d="M66.418,42.071c4.104,6.542-0.625,17.858-10.758,24.212c-10.133,6.355-21.838,5.344-25.939-1.197
				c-4.104-6.541,0.785-16.999,10.918-23.354C50.773,35.377,62.318,35.529,66.418,42.071z"/>
			<path style="fill:#5C6AE6;" d="M66.363,42.194c4.08,6.504-0.625,17.758-10.707,24.079c-10.08,6.322-21.723,5.32-25.801-1.184
				c-4.08-6.504,0.785-16.904,10.867-23.227S62.287,35.689,66.363,42.194z"/>
			<path style="fill:#5D6BE5;" d="M66.309,42.317c4.057,6.466-0.627,17.657-10.656,23.946c-10.027,6.289-21.607,5.296-25.662-1.17
				s0.787-16.81,10.814-23.099C50.836,35.706,62.256,35.851,66.309,42.317z"/>
			<path style="fill:#5D6CE5;" d="M66.254,42.439c4.033,6.429-0.629,17.559-10.605,23.813c-9.975,6.257-21.492,5.272-25.523-1.156
				c-4.031-6.428,0.787-16.713,10.764-22.97C50.867,35.871,62.225,36.011,66.254,42.439z"/>
			<path style="fill:#5E6DE5;" d="M66.197,42.562c4.012,6.391-0.629,17.458-10.553,23.681c-9.922,6.224-21.377,5.248-25.383-1.143
				c-4.01-6.39,0.785-16.618,10.711-22.841C50.896,36.036,62.193,36.172,66.197,42.562z"/>
			<path style="fill:#5F6EE5;" d="M66.143,42.686c3.988,6.354-0.629,17.358-10.502,23.548c-9.871,6.19-21.262,5.224-25.244-1.129
				c-3.984-6.352,0.787-16.523,10.658-22.713C50.928,36.2,62.162,36.333,66.143,42.686z"/>
			<path style="fill:#606FE4;" d="M66.088,42.809c3.965,6.314-0.631,17.258-10.451,23.415c-9.816,6.157-21.146,5.199-25.105-1.115
				c-3.961-6.313,0.787-16.428,10.607-22.585C50.959,36.365,62.131,36.494,66.088,42.809z"/>
			<path style="fill:#6170E4;" d="M66.035,42.932c3.938,6.276-0.635,17.157-10.402,23.281c-9.766,6.125-21.031,5.176-24.967-1.101
				s0.789-16.332,10.557-22.457S62.102,36.654,66.035,42.932z"/>
			<path style="fill:#6271E4;" d="M65.98,43.054c3.914,6.24-0.637,17.059-10.352,23.149c-9.713,6.092-20.914,5.152-24.826-1.087
				c-3.914-6.238,0.787-16.237,10.502-22.329C51.021,36.695,62.07,36.815,65.98,43.054z"/>
			<path style="fill:#6372E4;" d="M65.926,43.177c3.891,6.202-0.639,16.958-10.301,23.017c-9.66,6.059-20.799,5.128-24.688-1.073
				c-3.891-6.201,0.789-16.143,10.451-22.201C51.051,36.859,62.039,36.976,65.926,43.177z"/>
			<path style="fill:#6473E4;" d="M65.871,43.3c3.867,6.164-0.639,16.858-10.25,22.883c-9.607,6.026-20.684,5.104-24.549-1.059
				s0.789-16.047,10.4-22.073C51.082,37.024,62.008,37.137,65.871,43.3z"/>
			<path style="fill:#6474E3;" d="M65.816,43.423c3.844,6.126-0.641,16.758-10.199,22.75c-9.555,5.993-20.568,5.08-24.41-1.045
				c-3.842-6.126,0.791-15.952,10.348-21.945C51.113,37.189,61.977,37.297,65.816,43.423z"/>
			<path style="fill:#6575E3;" d="M65.762,43.546c3.82,6.088-0.643,16.658-10.148,22.617c-9.502,5.96-20.453,5.056-24.27-1.032
				c-3.818-6.087,0.789-15.856,10.295-21.816S61.945,37.458,65.762,43.546z"/>
			<path style="fill:#6676E3;" d="M65.707,43.669c3.795,6.05-0.645,16.558-10.098,22.484c-9.449,5.927-20.338,5.031-24.131-1.019
				c-3.795-6.049,0.791-15.761,10.242-21.688C51.176,37.519,61.916,37.619,65.707,43.669z"/>
			<path style="fill:#6777E3;" d="M65.652,43.792c3.771,6.012-0.646,16.457-10.045,22.351c-9.398,5.895-20.225,5.008-23.994-1.004
				c-3.771-6.011,0.791-15.666,10.191-21.561S61.885,37.779,65.652,43.792z"/>
			<path style="fill:#6878E2;" d="M65.598,43.915c3.748,5.975-0.646,16.356-9.994,22.218c-9.346,5.861-20.109,4.983-23.855-0.99
				s0.793-15.571,10.141-21.433S61.854,37.94,65.598,43.915z"/>
			<path style="fill:#6979E2;" d="M65.543,44.038c3.725,5.936-0.648,16.257-9.943,22.085c-9.293,5.828-19.992,4.96-23.715-0.977
				c-3.725-5.936,0.791-15.476,10.086-21.305C51.268,38.014,61.822,38.102,65.543,44.038z"/>
			<path style="fill:#6A7AE2;" d="M65.488,44.16c3.701,5.898-0.65,16.157-9.893,21.952c-9.242,5.796-19.877,4.937-23.576-0.962
				s0.793-15.381,10.035-21.177S61.791,38.262,65.488,44.16z"/>
			<path style="fill:#6A7BE2;" d="M65.434,44.283c3.678,5.861-0.652,16.058-9.842,21.819c-9.189,5.763-19.762,4.912-23.438-0.948
				s0.793-15.286,9.982-21.049C51.328,38.343,61.76,38.423,65.434,44.283z"/>
			<path style="fill:#6B7CE1;" d="M65.379,44.406c3.652,5.823-0.654,15.957-9.791,21.687s-19.646,4.888-23.299-0.935
				s0.795-15.19,9.932-20.921C51.359,38.507,61.73,38.584,65.379,44.406z"/>
			<path style="fill:#6C7DE1;" d="M65.324,44.529c3.629,5.785-0.654,15.857-9.74,21.553c-9.084,5.697-19.531,4.864-23.158-0.92
				c-3.629-5.784,0.793-15.096,9.879-20.793S61.699,38.744,65.324,44.529z"/>
			<path style="fill:#6D7EE1;" d="M65.27,44.652c3.605,5.747-0.656,15.757-9.689,21.42c-9.031,5.664-19.416,4.84-23.02-0.906
				c-3.605-5.747,0.795-15,9.826-20.665C51.422,38.837,61.668,38.905,65.27,44.652z"/>
			<path style="fill:#6E7FE1;" d="M65.215,44.775c3.582,5.709-0.658,15.656-9.639,21.287c-8.979,5.631-19.301,4.815-22.881-0.893
				c-3.58-5.709,0.795-14.905,9.775-20.537C51.451,39.002,61.637,39.065,65.215,44.775z"/>
			<path style="fill:#6F80E0;" d="M65.16,44.898c3.559,5.671-0.66,15.557-9.588,21.154c-8.926,5.599-19.186,4.792-22.74-0.879
				c-3.559-5.672,0.793-14.81,9.723-20.409C51.482,39.167,61.605,39.227,65.16,44.898z"/>
			<path style="fill:#7081E0;" d="M65.105,45.021c3.535,5.634-0.662,15.457-9.537,21.021c-8.873,5.566-19.07,4.769-22.602-0.865
				c-3.535-5.633,0.795-14.714,9.67-20.28C51.514,39.331,61.574,39.387,65.105,45.021z"/>
			<path style="fill:#7182E0;" d="M65.051,45.144c3.512,5.596-0.664,15.357-9.486,20.889c-8.82,5.533-18.955,4.744-22.463-0.852
				c-3.51-5.595,0.795-14.619,9.619-20.151C51.545,39.496,61.543,39.548,65.051,45.144z"/>
			<path style="fill:#7183E0;" d="M64.996,45.267c3.486,5.558-0.664,15.257-9.436,20.756c-8.768,5.5-18.84,4.72-22.324-0.838
				c-3.486-5.557,0.797-14.523,9.566-20.023C51.574,39.661,61.512,39.709,64.996,45.267z"/>
			<path style="fill:#7284DF;" d="M64.941,45.39c3.463,5.52-0.666,15.156-9.385,20.622c-8.717,5.468-18.723,4.696-22.184-0.823
				c-3.463-5.52,0.795-14.429,9.514-19.896S61.482,39.87,64.941,45.39z"/>
			<path style="fill:#7385DF;" d="M64.887,45.513c3.439,5.482-0.668,15.056-9.334,20.489c-8.662,5.435-18.607,4.672-22.045-0.81
				c-3.439-5.481,0.797-14.334,9.463-19.768C51.637,39.99,61.451,40.03,64.887,45.513z"/>
			<path style="fill:#7486DF;" d="M64.832,45.636c3.416,5.444-0.67,14.956-9.283,20.356c-8.611,5.401-18.492,4.647-21.906-0.796
				c-3.416-5.444,0.797-14.238,9.41-19.64C51.668,40.155,61.42,40.191,64.832,45.636z"/>
			<path style="fill:#7587DF;" d="M64.777,45.758c3.393,5.407-0.672,14.856-9.232,20.225c-8.559,5.368-18.377,4.623-21.768-0.782
				c-3.391-5.406,0.799-14.144,9.359-19.512S61.389,40.352,64.777,45.758z"/>
			<path style="fill:#7688DF;" d="M64.723,45.881c3.369,5.369-0.672,14.757-9.182,20.091c-8.506,5.336-18.262,4.601-21.627-0.768
				c-3.369-5.368,0.797-14.049,9.305-19.384C51.729,40.485,61.357,40.513,64.723,45.881z"/>
			<path style="fill:#7789DE;" d="M64.668,46.004c3.346,5.331-0.674,14.656-9.129,19.958c-8.455,5.303-18.148,4.576-21.49-0.754
				c-3.344-5.331,0.799-13.953,9.254-19.256C51.76,40.649,61.326,40.673,64.668,46.004z"/>
			<path style="fill:#778ADE;" d="M64.613,46.127c3.32,5.293-0.676,14.557-9.078,19.825c-8.402,5.27-18.033,4.552-21.352-0.741
				c-3.32-5.292,0.799-13.857,9.203-19.127S61.297,40.834,64.613,46.127z"/>
			<path style="fill:#788BDE;" d="M64.559,46.25c3.297,5.255-0.678,14.456-9.027,19.691c-8.35,5.237-17.918,4.528-21.213-0.727
				c-3.297-5.254,0.801-13.762,9.15-18.999C51.82,40.979,61.266,40.995,64.559,46.25z"/>
			<path style="fill:#798CDE;" d="M64.504,46.373c3.273,5.217-0.678,14.355-8.977,19.559c-8.297,5.204-17.803,4.504-21.074-0.713
				s0.801-13.667,9.1-18.871S61.234,41.155,64.504,46.373z"/>
			<path style="fill:#7A8DDD;" d="M64.449,46.496c3.25,5.179-0.68,14.256-8.926,19.426c-8.244,5.171-17.688,4.479-20.934-0.699
				c-3.25-5.179,0.801-13.572,9.047-18.743S61.203,41.316,64.449,46.496z"/>
			<path style="fill:#7B8EDD;" d="M64.395,46.619c3.227,5.142-0.682,14.155-8.875,19.292c-8.191,5.139-17.572,4.456-20.795-0.685
				c-3.225-5.142,0.801-13.477,8.994-18.615C51.914,41.474,61.172,41.478,64.395,46.619z"/>
			<path style="fill:#7C8FDD;" d="M64.34,46.742c3.203,5.104-0.684,14.056-8.824,19.159c-8.139,5.105-17.455,4.432-20.656-0.671
				c-3.201-5.104,0.803-13.382,8.943-18.487C51.945,41.638,61.141,41.638,64.34,46.742z"/>
			<path style="fill:#7D90DD;" d="M64.285,46.864c3.18,5.065-0.686,13.956-8.773,19.026c-8.088,5.073-17.34,4.409-20.518-0.656
				s0.803-13.287,8.893-18.359C51.975,41.803,61.111,41.799,64.285,46.864z"/>
			<path style="fill:#7E91DC;" d="M64.23,46.987c3.154,5.028-0.686,13.855-8.723,18.894c-8.035,5.04-17.225,4.385-20.377-0.643
				c-3.154-5.027,0.803-13.191,8.838-18.231C52.006,41.968,61.08,41.96,64.23,46.987z"/>
			<path style="fill:#7E92DC;" d="M64.176,47.11c3.131,4.99-0.688,13.756-8.672,18.761c-7.982,5.007-17.109,4.36-20.238-0.63
				c-3.131-4.989,0.803-13.096,8.787-18.103C52.037,42.133,61.049,42.12,64.176,47.11z"/>
			<path style="fill:#7F93DC;" d="M64.121,47.233c3.107,4.952-0.689,13.655-8.621,18.628c-7.93,4.974-16.994,4.336-20.1-0.616
				c-3.107-4.951,0.803-13,8.734-17.975C52.068,42.297,61.018,42.281,64.121,47.233z"/>
			<path style="fill:#8094DC;" d="M64.066,47.355c3.084,4.915-0.691,13.556-8.57,18.495c-7.877,4.941-16.879,4.312-19.961-0.602
				s0.805-12.905,8.684-17.847C52.1,42.462,60.986,42.441,64.066,47.355z"/>
			<path style="fill:#8195DB;" d="M64.012,47.479c3.061,4.877-0.693,13.456-8.52,18.362c-7.824,4.908-16.764,4.288-19.82-0.588
				c-3.061-4.876,0.805-12.811,8.631-17.719C52.129,42.627,60.955,42.603,64.012,47.479z"/>
			<path style="fill:#8296DB;" d="M63.957,47.602c3.037,4.839-0.693,13.355-8.469,18.229c-7.771,4.875-16.648,4.264-19.682-0.574
				c-3.035-4.838,0.805-12.715,8.578-17.59C52.16,42.792,60.924,42.763,63.957,47.602z"/>
			<path style="fill:#8397DB;" d="M63.902,47.725c3.012,4.801-0.695,13.256-8.418,18.097c-7.719,4.842-16.533,4.24-19.543-0.561
				c-3.012-4.801,0.805-12.62,8.527-17.462C52.191,42.956,60.893,42.924,63.902,47.725z"/>
			<path style="fill:#8498DB;" d="M63.848,47.848c2.988,4.763-0.697,13.155-8.367,17.963c-7.666,4.81-16.418,4.217-19.402-0.546
				c-2.99-4.763,0.805-12.525,8.475-17.334C52.223,43.121,60.863,43.085,63.848,47.848z"/>
			<path style="fill:#8499DA;" d="M63.793,47.971c2.965,4.726-0.699,13.055-8.316,17.83c-7.613,4.776-16.303,4.192-19.264-0.533
				c-2.965-4.724,0.805-12.429,8.422-17.205S60.832,43.245,63.793,47.971z"/>
			<path style="fill:#859ADA;" d="M63.738,48.094c2.941,4.687-0.701,12.955-8.266,17.697c-7.562,4.743-16.186,4.168-19.125-0.52
				c-2.941-4.687,0.807-12.334,8.371-17.077S60.801,43.406,63.738,48.094z"/>
			<path style="fill:#869BDA;" d="M63.684,48.217c2.918,4.649-0.701,12.854-8.213,17.564s-16.072,4.144-18.988-0.506
				c-2.916-4.648,0.807-12.238,8.318-16.949C52.314,43.615,60.77,43.566,63.684,48.217z"/>
			<path style="fill:#879CDA;" d="M63.629,48.34c2.895,4.611-0.703,12.755-8.162,17.431c-7.459,4.679-15.957,4.12-18.848-0.491
				c-2.895-4.61,0.807-12.144,8.266-16.821C52.346,43.78,60.738,43.728,63.629,48.34z"/>
			<path style="fill:#889DDA;" d="M63.574,48.462c2.871,4.574-0.705,12.655-8.111,17.299c-7.406,4.646-15.842,4.096-18.709-0.478
				c-2.871-4.573,0.807-12.049,8.215-16.693C52.375,43.945,60.707,43.889,63.574,48.462z"/>
			<path style="fill:#899ED9;" d="M63.52,48.585c2.846,4.536-0.707,12.555-8.061,17.166c-7.354,4.612-15.727,4.071-18.57-0.464
				c-2.846-4.535,0.809-11.953,8.162-16.565C52.406,44.11,60.678,44.049,63.52,48.585z"/>
			<path style="fill:#8A9FD9;" d="M63.465,48.708c2.822,4.498-0.709,12.455-8.01,17.032c-7.301,4.58-15.611,4.049-18.432-0.449
				c-2.822-4.497,0.809-11.858,8.111-16.438S60.646,44.21,63.465,48.708z"/>
			<path style="fill:#8BA0D9;" d="M63.41,48.831c2.799,4.46-0.709,12.354-7.959,16.899c-7.248,4.547-15.496,4.024-18.291-0.436
				c-2.799-4.46,0.809-11.764,8.057-16.31C52.469,44.439,60.615,44.371,63.41,48.831z"/>
			<path style="fill:#8BA1D9;" d="M63.355,48.954c2.775,4.422-0.711,12.254-7.908,16.767c-7.195,4.514-15.381,4-18.152-0.423
				c-2.775-4.421,0.809-11.667,8.006-16.181C52.498,44.604,60.584,44.531,63.355,48.954z"/>
			<path style="fill:#8CA2D8;" d="M63.301,49.077c2.752,4.384-0.713,12.154-7.857,16.634c-7.143,4.48-15.266,3.976-18.014-0.409
				c-2.752-4.384,0.811-11.572,7.955-16.053S60.553,44.692,63.301,49.077z"/>
			<path style="fill:#8DA3D8;" d="M63.246,49.2c2.729,4.346-0.715,12.054-7.807,16.5c-7.09,4.448-15.15,3.952-17.875-0.395
				c-2.727-4.346,0.811-11.477,7.902-15.925C52.561,44.934,60.521,44.854,63.246,49.2z"/>
			<path style="fill:#8EA4D8;" d="M63.191,49.322c2.705,4.309-0.717,11.955-7.756,16.368c-7.037,4.415-15.033,3.928-17.734-0.381
				c-2.705-4.308,0.811-11.382,7.85-15.797C52.592,45.099,60.49,45.014,63.191,49.322z"/>
			<path style="fill:#8FA5D8;" d="M63.137,49.445c2.68,4.271-0.717,11.854-7.705,16.235c-6.986,4.382-14.918,3.903-17.596-0.367
				c-2.68-4.271,0.811-11.287,7.799-15.669C52.621,45.264,60.461,45.175,63.137,49.445z"/>
			<path style="fill:#90A6D7;" d="M63.082,49.568c2.656,4.233-0.719,11.754-7.654,16.102c-6.934,4.35-14.803,3.881-17.457-0.353
				c-2.656-4.232,0.811-11.191,7.746-15.541C52.652,45.428,60.43,45.336,63.082,49.568z"/>
			<path style="fill:#91A7D7;" d="M63.027,49.691c2.633,4.195-0.721,11.654-7.604,15.969c-6.881,4.316-14.688,3.856-17.318-0.339
				c-2.633-4.194,0.812-11.097,7.695-15.413C52.684,45.593,60.398,45.496,63.027,49.691z"/>
			<path style="fill:#91A8D7;" d="M62.973,49.814c2.609,4.157-0.723,11.554-7.553,15.836c-6.828,4.283-14.572,3.832-17.178-0.325
				c-2.609-4.157,0.811-11.002,7.641-15.285C52.715,45.758,60.367,45.657,62.973,49.814z"/>
			<path style="fill:#92A9D7;" d="M62.918,49.938c2.586,4.119-0.725,11.454-7.502,15.703c-6.775,4.25-14.457,3.808-17.039-0.312
				c-2.586-4.119,0.812-10.906,7.59-15.157C52.744,45.923,60.336,45.817,62.918,49.938z"/>
			<path style="fill:#93AAD6;" d="M62.863,50.06c2.562,4.082-0.725,11.354-7.451,15.57c-6.723,4.218-14.342,3.784-16.9-0.297
				c-2.561-4.081,0.812-10.812,7.539-15.029C52.775,46.087,60.305,45.979,62.863,50.06z"/>
			<path style="fill:#94ABD6;" d="M62.809,50.183c2.537,4.044-0.727,11.254-7.4,15.438c-6.67,4.185-14.227,3.76-16.762-0.283
				c-2.537-4.044,0.814-10.716,7.486-14.9C52.807,46.252,60.275,46.139,62.809,50.183z"/>
			<path style="fill:#95ACD6;" d="M62.754,50.306c2.514,4.006-0.729,11.154-7.35,15.304c-6.617,4.152-14.111,3.736-16.621-0.27
				c-2.516-4.005,0.812-10.62,7.434-14.771S60.244,46.3,62.754,50.306z"/>
			<path style="fill:#96ADD6;" d="M62.699,50.429c2.49,3.968-0.73,11.054-7.299,15.171c-6.564,4.119-13.996,3.712-16.482-0.256
				c-2.49-3.967,0.814-10.525,7.383-14.644C52.869,46.581,60.213,46.461,62.699,50.429z"/>
			<path style="fill:#97AED5;" d="M62.645,50.552c2.467,3.931-0.73,10.953-7.246,15.038c-6.514,4.086-13.883,3.688-16.346-0.242
				c-2.467-3.93,0.814-10.43,7.33-14.516S60.182,46.621,62.645,50.552z"/>
			<path style="fill:#97AFD5;" d="M62.59,50.675c2.443,3.892-0.732,10.854-7.195,14.905c-6.461,4.053-13.766,3.664-16.207-0.229
				c-2.441-3.892,0.816-10.335,7.279-14.388S60.15,46.782,62.59,50.675z"/>
			<path style="fill:#98B0D5;" d="M62.535,50.798c2.42,3.854-0.734,10.753-7.145,14.771c-6.41,4.021-13.65,3.641-16.066-0.214
				c-2.42-3.854,0.814-10.239,7.225-14.26C52.961,47.076,60.119,46.943,62.535,50.798z"/>
			<path style="fill:#99B1D5;" d="M62.48,50.92c2.396,3.817-0.736,10.654-7.094,14.64c-6.357,3.987-13.535,3.616-15.928-0.2
				c-2.396-3.816,0.816-10.145,7.174-14.132C52.992,47.24,60.088,47.104,62.48,50.92z"/>
			<path style="fill:#9AB2D4;" d="M62.426,51.043c2.371,3.779-0.738,10.554-7.043,14.507c-6.305,3.954-13.42,3.592-15.789-0.187
				c-2.371-3.778,0.816-10.05,7.123-14.004C53.021,47.405,60.059,47.265,62.426,51.043z"/>
			<path style="fill:#9BB3D4;" d="M62.371,51.166c2.348,3.741-0.738,10.453-6.992,14.373c-6.252,3.922-13.305,3.568-15.65-0.173
				c-2.348-3.739,0.818-9.953,7.07-13.875C53.053,47.57,60.027,47.425,62.371,51.166z"/>
			<path style="fill:#9CB4D4;" d="M62.316,51.289c2.324,3.703-0.74,10.354-6.941,14.24c-6.199,3.889-13.189,3.544-15.51-0.159
				c-2.324-3.702,0.816-9.858,7.018-13.747C53.084,47.735,59.996,47.586,62.316,51.289z"/>
			<path style="fill:#9DB5D4;" d="M62.262,51.412c2.301,3.665-0.742,10.253-6.891,14.107c-6.146,3.855-13.074,3.52-15.371-0.146
				c-2.301-3.664,0.818-9.764,6.967-13.619S59.965,47.747,62.262,51.412z"/>
			<path style="fill:#9EB6D4;" d="M62.207,51.535c2.277,3.627-0.744,10.153-6.84,13.975c-6.094,3.822-12.959,3.495-15.232-0.132
				c-2.277-3.626,0.818-9.668,6.914-13.491C53.145,48.064,59.934,47.907,62.207,51.535z"/>
			<path style="fill:#9EB7D3;" d="M62.152,51.658c2.254,3.589-0.746,10.053-6.789,13.841c-6.041,3.79-12.844,3.473-15.094-0.117
				c-2.252-3.589,0.818-9.573,6.863-13.363C53.176,48.229,59.902,48.068,62.152,51.658z"/>
			<path style="fill:#9FB8D3;" d="M62.098,51.78c2.23,3.552-0.746,9.953-6.738,13.709c-5.988,3.757-12.729,3.448-14.953-0.104
				c-2.23-3.551,0.818-9.478,6.809-13.235C53.207,48.395,59.871,48.229,62.098,51.78z"/>
			<path style="fill:#A0B9D3;" d="M62.043,51.903c2.205,3.515-0.748,9.854-6.688,13.576c-5.936,3.724-12.613,3.424-14.814-0.09
				c-2.205-3.513,0.818-9.383,6.758-13.107C53.238,48.559,59.842,48.39,62.043,51.903z"/>
			<path style="fill:#A1BAD3;" d="M61.988,52.026c2.182,3.477-0.75,9.753-6.637,13.442c-5.885,3.691-12.496,3.4-14.676-0.075
				c-2.182-3.476,0.82-9.288,6.707-12.979C53.27,48.724,59.811,48.551,61.988,52.026z"/>
			<path style="fill:#A2BBD2;" d="M61.934,52.149c2.158,3.438-0.752,9.653-6.586,13.31c-5.832,3.659-12.381,3.376-14.537-0.062
				c-2.158-3.438,0.82-9.192,6.654-12.852C53.299,48.889,59.779,48.711,61.934,52.149z"/>
			<path style="fill:#A3BCD2;" d="M61.879,52.272c2.135,3.4-0.754,9.553-6.535,13.177c-5.779,3.626-12.266,3.352-14.396-0.048
				c-2.135-3.399,0.82-9.098,6.602-12.724C53.33,49.053,59.748,48.872,61.879,52.272z"/>
			<path style="fill:#A4BDD2;" d="M61.824,52.396c2.111,3.362-0.754,9.452-6.484,13.044c-5.727,3.593-12.15,3.327-14.258-0.035
				c-2.111-3.361,0.82-9.002,6.551-12.595C53.361,49.218,59.717,49.033,61.824,52.396z"/>
			<path style="fill:#A4BED2;" d="M61.77,52.519c2.088,3.324-0.756,9.353-6.434,12.91c-5.674,3.561-12.035,3.305-14.119-0.021
				c-2.086-3.323,0.822-8.906,6.498-12.467C53.393,49.383,59.686,49.193,61.77,52.519z"/>
			<path style="fill:#A5BFD1;" d="M61.715,52.641c2.062,3.287-0.758,9.253-6.383,12.778c-5.621,3.527-11.92,3.28-13.98-0.007
				c-2.062-3.286,0.822-8.812,6.447-12.338C53.422,49.548,59.656,49.354,61.715,52.641z"/>
			<path style="fill:#A6C0D1;" d="M61.66,52.764c2.039,3.249-0.76,9.153-6.332,12.646c-5.568,3.494-11.805,3.256-13.84,0.007
				c-2.041-3.248,0.822-8.716,6.393-12.21C53.453,49.712,59.625,49.515,61.66,52.764z"/>
			<path style="fill:#A7C1D1;" d="M61.605,52.887c2.016,3.211-0.762,9.053-6.279,12.512c-5.518,3.462-11.691,3.232-13.703,0.021
				c-2.016-3.21,0.822-8.621,6.342-12.082S59.594,49.676,61.605,52.887z"/>
			<path style="fill:#A8C2D1;" d="M61.551,53.01c1.992,3.173-0.762,8.952-6.229,12.379c-5.465,3.429-11.576,3.208-13.564,0.035
				c-1.992-3.173,0.824-8.526,6.291-11.954S59.562,49.837,61.551,53.01z"/>
			<path style="fill:#A9C3D0;" d="M61.496,53.133c1.969,3.135-0.764,8.853-6.178,12.246c-5.412,3.396-11.461,3.184-13.426,0.049
				c-1.967-3.135,0.824-8.431,6.238-11.826C53.545,50.207,59.531,49.997,61.496,53.133z"/>
			<path style="fill:#AAC4D0;" d="M61.441,53.256c1.945,3.098-0.766,8.752-6.127,12.112c-5.361,3.363-11.344,3.16-13.285,0.063
				c-1.945-3.097,0.824-8.336,6.186-11.698S59.5,50.158,61.441,53.256z"/>
			<path style="fill:#ABC5D0;" d="M61.387,53.379c1.922,3.06-0.768,8.651-6.076,11.979c-5.309,3.33-11.229,3.136-13.146,0.076
				c-1.922-3.059,0.824-8.24,6.135-11.569C53.607,50.536,59.469,50.319,61.387,53.379z"/>
			<path style="fill:#ABC6D0;" d="M61.332,53.501c1.896,3.022-0.77,8.553-6.025,11.848c-5.256,3.297-11.113,3.112-13.008,0.09
				c-1.896-3.021,0.826-8.145,6.082-11.441C53.639,50.701,59.439,50.479,61.332,53.501z"/>
			<path style="fill:#ACC7CF;" d="M61.277,53.624c1.873,2.984-0.77,8.452-5.975,11.715c-5.203,3.264-10.998,3.088-12.869,0.104
				c-1.873-2.982,0.826-8.05,6.031-11.313C53.668,50.866,59.408,50.641,61.277,53.624z"/>
			<path style="fill:#ADC8CF;" d="M61.223,53.747c1.85,2.946-0.771,8.353-5.924,11.581c-5.15,3.231-10.883,3.064-12.729,0.118
				c-1.85-2.945,0.826-7.954,5.977-11.186C53.699,51.03,59.377,50.801,61.223,53.747z"/>
			<path style="fill:#AEC9CF;" d="M61.168,53.87c1.826,2.908-0.773,8.252-5.873,11.448c-5.098,3.198-10.768,3.04-12.59,0.132
				c-1.826-2.907,0.826-7.859,5.926-11.058C53.73,51.195,59.346,50.962,61.168,53.87z"/>
			<path style="fill:#0000FF;" d="M32.5,12.759c3.084,4.072,0.99,10.847-4.67,15.132c-5.664,4.289-12.754,4.462-15.836,0.39
				c-3.082-4.073-0.992-10.848,4.672-15.133C22.326,8.86,29.42,8.688,32.5,12.759z"/>
			<path style="fill:#0202FF;" d="M12.025,28.245c-3.07-4.06-0.988-10.812,4.658-15.084c5.641-4.273,12.711-4.444,15.781-0.388
				c3.074,4.059,0.988,10.812-4.654,15.083C22.164,32.132,15.098,32.304,12.025,28.245z"/>
			<path style="fill:#0404FF;" d="M12.059,28.209c-3.061-4.047-0.986-10.776,4.643-15.033c5.621-4.259,12.67-4.431,15.729-0.387
				c3.064,4.046,0.984,10.775-4.639,15.032C22.164,32.083,15.121,32.255,12.059,28.209z"/>
			<path style="fill:#0606FF;" d="M12.092,28.174c-3.053-4.033-0.982-10.742,4.625-14.984c5.605-4.245,12.629-4.416,15.678-0.386
				c3.055,4.032,0.982,10.74-4.623,14.983C22.162,32.034,15.143,32.206,12.092,28.174z"/>
			<path style="fill:#0808FF;" d="M12.123,28.138c-3.041-4.02-0.979-10.705,4.611-14.935c5.586-4.231,12.586-4.4,15.627-0.384
				c3.043,4.02,0.977,10.705-4.609,14.934C22.162,31.986,15.166,32.157,12.123,28.138z"/>
			<path style="fill:#0A0AFF;" d="M12.154,28.101c-3.031-4.007-0.975-10.67,4.596-14.885c5.568-4.217,12.545-4.386,15.574-0.383
				c3.035,4.006,0.975,10.67-4.594,14.885C22.16,31.937,15.188,32.106,12.154,28.101z"/>
			<path style="fill:#0C0CFF;" d="M12.188,28.065c-3.021-3.993-0.973-10.634,4.58-14.836c5.549-4.203,12.504-4.371,15.521-0.381
				c3.025,3.992,0.973,10.634-4.576,14.834C22.158,31.889,15.209,32.058,12.188,28.065z"/>
			<path style="fill:#0E0EFF;" d="M12.219,28.03c-3.012-3.98-0.969-10.6,4.566-14.786c5.529-4.189,12.461-4.356,15.471-0.381
				c3.014,3.979,0.967,10.599-4.564,14.786C22.158,31.841,15.23,32.009,12.219,28.03z"/>
			<path style="fill:#1010FF;" d="M12.252,27.994c-3.002-3.967-0.967-10.563,4.549-14.736c5.514-4.175,12.42-4.343,15.42-0.379
				c3.004,3.966,0.965,10.563-4.547,14.736C22.156,31.791,15.254,31.96,12.252,27.994z"/>
			<path style="fill:#1313FF;" d="M12.285,27.959c-2.992-3.954-0.965-10.528,4.533-14.688c5.494-4.161,12.377-4.327,15.367-0.378
				c2.992,3.953,0.961,10.527-4.531,14.688C22.156,31.743,15.275,31.911,12.285,27.959z"/>
			<path style="fill:#1515FF;" d="M12.316,27.924c-2.98-3.94-0.959-10.494,4.52-14.639c5.475-4.146,12.336-4.313,15.316-0.376
				c2.982,3.939,0.957,10.492-4.52,14.637C22.154,31.695,15.297,31.861,12.316,27.924z"/>
			<path style="fill:#1717FF;" d="M12.348,27.887c-2.971-3.926-0.955-10.456,4.504-14.588c5.457-4.133,12.295-4.298,15.266-0.375
				c2.973,3.926,0.953,10.457-4.502,14.588C22.154,31.646,15.32,31.812,12.348,27.887z"/>
			<path style="fill:#1919FF;" d="M12.381,27.851c-2.963-3.913-0.955-10.422,4.488-14.538c5.438-4.119,12.252-4.284,15.211-0.374
				c2.963,3.913,0.953,10.421-4.486,14.538C22.152,31.598,15.34,31.764,12.381,27.851z"/>
			<path style="fill:#1B1BFF;" d="M12.412,27.815c-2.951-3.9-0.949-10.386,4.473-14.489c5.42-4.104,12.211-4.27,15.16-0.373
				c2.953,3.899,0.949,10.386-4.471,14.489C22.15,31.548,15.363,31.714,12.412,27.815z"/>
			<path style="fill:#1D1DFF;" d="M12.445,27.779c-2.941-3.886-0.947-10.351,4.457-14.439c5.4-4.091,12.17-4.255,15.109-0.371
				c2.941,3.887,0.943,10.35-4.457,14.438C22.15,31.5,15.385,31.665,12.445,27.779z"/>
			<path style="fill:#1F1FFF;" d="M12.477,27.744c-2.93-3.874-0.943-10.315,4.443-14.391c5.383-4.077,12.127-4.239,15.057-0.37
				c2.932,3.873,0.941,10.315-4.441,14.39C22.148,31.452,15.408,31.616,12.477,27.744z"/>
			<path style="fill:#2121FF;" d="M12.51,27.709c-2.92-3.86-0.941-10.28,4.426-14.342c5.365-4.062,12.086-4.226,15.006-0.368
				c2.922,3.859,0.938,10.279-4.426,14.34C22.148,31.403,15.43,31.567,12.51,27.709z"/>
			<path style="fill:#2323FF;" d="M12.541,27.672c-2.91-3.846-0.938-10.244,4.412-14.29c5.346-4.049,12.043-4.211,14.953-0.368
				c2.912,3.847,0.936,10.244-4.41,14.291C22.146,31.354,15.451,31.519,12.541,27.672z"/>
			<path style="fill:#2525FF;" d="M12.574,27.637c-2.902-3.833-0.934-10.208,4.396-14.241c5.326-4.035,12.002-4.196,14.9-0.365
				c2.902,3.831,0.932,10.207-4.395,14.239C22.146,31.307,15.475,31.469,12.574,27.637z"/>
			<path style="fill:#2727FF;" d="M12.605,27.601c-2.891-3.819-0.932-10.173,4.383-14.191c5.307-4.021,11.959-4.182,14.848-0.364
				c2.893,3.819,0.93,10.172-4.379,14.19C22.145,31.258,15.496,31.42,12.605,27.601z"/>
			<path style="fill:#2929FF;" d="M12.639,27.565c-2.881-3.807-0.928-10.138,4.365-14.143c5.291-4.007,11.92-4.167,14.797-0.363
				c2.883,3.806,0.928,10.137-4.363,14.142C22.145,31.209,15.518,31.37,12.639,27.565z"/>
			<path style="fill:#2B2BFF;" d="M12.67,27.529c-2.869-3.793-0.924-10.102,4.352-14.093c5.271-3.992,11.877-4.153,14.744-0.361
				c2.873,3.791,0.924,10.102-4.348,14.091C22.143,31.161,15.541,31.322,12.67,27.529z"/>
			<path style="fill:#2D2DFF;" d="M12.703,27.494c-2.861-3.78-0.922-10.067,4.334-14.044c5.254-3.979,11.836-4.138,14.693-0.36
				c2.863,3.779,0.92,10.065-4.332,14.042C22.141,31.112,15.562,31.272,12.703,27.494z"/>
			<path style="fill:#2F2FFF;" d="M12.734,27.459c-2.85-3.768-0.918-10.032,4.32-13.995c5.234-3.965,11.793-4.123,14.643-0.358
				c2.852,3.765,0.916,10.029-4.32,13.992C22.141,31.064,15.584,31.224,12.734,27.459z"/>
			<path style="fill:#3131FF;" d="M12.768,27.422c-2.842-3.753-0.916-9.996,4.305-13.943c5.215-3.951,11.752-4.109,14.59-0.358
				c2.842,3.752,0.912,9.994-4.303,13.943C22.139,31.016,15.607,31.175,12.768,27.422z"/>
			<path style="fill:#3333FF;" d="M12.799,27.387c-2.83-3.74-0.912-9.96,4.291-13.896c5.195-3.936,11.709-4.094,14.537-0.356
				c2.832,3.739,0.91,9.959-4.287,13.895C22.139,30.967,15.629,31.126,12.799,27.387z"/>
			<path style="fill:#3535FF;" d="M12.83,27.351c-2.818-3.726-0.908-9.925,4.275-13.846c5.18-3.922,11.668-4.079,14.486-0.354
				c2.822,3.725,0.906,9.924-4.273,13.844C22.137,30.919,15.652,31.077,12.83,27.351z"/>
			<path style="fill:#3838FF;" d="M12.863,27.315c-2.811-3.714-0.904-9.89,4.26-13.796c5.16-3.909,11.625-4.065,14.434-0.354
				c2.812,3.713,0.904,9.888-4.256,13.795C22.137,30.869,15.674,31.027,12.863,27.315z"/>
			<path style="fill:#3A3AFF;" d="M12.895,27.279c-2.799-3.699-0.9-9.854,4.244-13.746c5.143-3.895,11.586-4.051,14.385-0.353
				c2.801,3.698,0.898,9.853-4.242,13.745C22.135,30.821,15.695,30.979,12.895,27.279z"/>
			<path style="fill:#3C3CFF;" d="M12.928,27.244c-2.789-3.688-0.898-9.819,4.229-13.697c5.123-3.881,11.543-4.035,14.332-0.352
				c2.789,3.686,0.896,9.816-4.229,13.695C22.135,30.773,15.719,30.929,12.928,27.244z"/>
			<path style="fill:#3E3EFF;" d="M12.959,27.207c-2.777-3.672-0.895-9.782,4.215-13.646c5.104-3.866,11.5-4.021,14.279-0.351
				c2.781,3.673,0.893,9.782-4.213,13.646C22.133,30.724,15.74,30.881,12.959,27.207z"/>
			<path style="fill:#4040FF;" d="M12.992,27.172c-2.77-3.66-0.893-9.747,4.197-13.598c5.086-3.853,11.459-4.007,14.229-0.349
				s0.889,9.746-4.197,13.596C22.131,30.676,15.762,30.831,12.992,27.172z"/>
			<path style="fill:#4242FF;" d="M13.025,27.136c-2.762-3.646-0.891-9.711,4.182-13.548c5.068-3.838,11.418-3.992,14.176-0.348
				c2.76,3.646,0.887,9.711-4.182,13.547C22.131,30.628,15.783,30.782,13.025,27.136z"/>
			<path style="fill:#4444FF;" d="M13.057,27.101c-2.75-3.633-0.885-9.677,4.168-13.499c5.049-3.824,11.375-3.978,14.123-0.347
				c2.752,3.633,0.883,9.676-4.166,13.498C22.129,30.578,15.805,30.732,13.057,27.101z"/>
			<path style="fill:#4646FF;" d="M13.09,27.065c-2.74-3.62-0.883-9.641,4.15-13.449c5.031-3.812,11.334-3.963,14.072-0.346
				c2.74,3.619,0.881,9.639-4.15,13.447C22.129,30.53,15.828,30.684,13.09,27.065z"/>
			<path style="fill:#4848FF;" d="M13.121,27.029c-2.729-3.606-0.879-9.605,4.137-13.399c5.012-3.797,11.291-3.949,14.02-0.345
				c2.73,3.605,0.877,9.604-4.135,13.398C22.127,30.482,15.85,30.635,13.121,27.029z"/>
			<path style="fill:#4A4AFF;" d="M13.152,26.994c-2.719-3.595-0.875-9.571,4.123-13.352c4.992-3.781,11.25-3.934,13.967-0.342
				c2.721,3.592,0.875,9.568-4.119,13.349C22.125,30.433,15.873,30.586,13.152,26.994z"/>
			<path style="fill:#4C4CFF;" d="M13.186,26.957c-2.709-3.579-0.873-9.533,4.105-13.301c4.977-3.768,11.209-3.918,13.916-0.341
				c2.711,3.579,0.871,9.533-4.104,13.299C22.125,30.385,15.895,30.536,13.186,26.957z"/>
			<path style="fill:#4E4EFF;" d="M13.217,26.922c-2.699-3.567-0.869-9.499,4.092-13.251c4.957-3.755,11.166-3.905,13.863-0.341
				c2.701,3.565,0.869,9.498-4.088,13.251C22.123,30.337,15.916,30.487,13.217,26.922z"/>
			<path style="fill:#5050FF;" d="M13.25,26.886c-2.689-3.553-0.867-9.463,4.074-13.201c4.939-3.74,11.125-3.89,13.812-0.339
				c2.691,3.552,0.865,9.463-4.072,13.2C22.123,30.287,15.939,30.438,13.25,26.886z"/>
			<path style="fill:#5252FF;" d="M13.281,26.851c-2.678-3.54-0.861-9.428,4.061-13.152c4.92-3.726,11.084-3.875,13.762-0.338
				c2.68,3.539,0.859,9.427-4.059,13.151C22.121,30.239,15.961,30.39,13.281,26.851z"/>
			<path style="fill:#5454FF;" d="M13.314,26.814c-2.67-3.526-0.861-9.392,4.045-13.103C22.26,10,28.4,9.851,31.068,13.375
				c2.67,3.525,0.857,9.393-4.043,13.103C22.119,30.191,15.982,30.34,13.314,26.814z"/>
			<path style="fill:#5656FF;" d="M13.346,26.779c-2.658-3.514-0.855-9.357,4.031-13.054c4.881-3.698,11-3.846,13.656-0.335
				c2.66,3.513,0.855,9.355-4.029,13.052C22.119,30.142,16.006,30.291,13.346,26.779z"/>
			<path style="fill:#5858FF;" d="M13.379,26.743c-2.648-3.5-0.854-9.322,4.014-13.004c4.863-3.685,10.959-3.832,13.605-0.334
				c2.65,3.499,0.852,9.32-4.012,13.003C22.117,30.094,16.027,30.241,13.379,26.743z"/>
			<path style="fill:#5A5AFF;" d="M13.41,26.707c-2.637-3.486-0.85-9.285,4-12.954c4.846-3.669,10.916-3.816,13.553-0.332
				c2.641,3.485,0.85,9.285-3.996,12.953C22.117,30.045,16.049,30.193,13.41,26.707z"/>
			<path style="fill:#5D5DFF;" d="M13.443,26.672c-2.629-3.474-0.848-9.251,3.982-12.904c4.828-3.656,10.875-3.803,13.504-0.332
				c2.629,3.473,0.844,9.249-3.984,12.903C22.115,29.996,16.072,30.145,13.443,26.672z"/>
			<path style="fill:#5F5FFF;" d="M13.475,26.636c-2.617-3.46-0.844-9.215,3.969-12.854c4.809-3.643,10.834-3.789,13.451-0.331
				c2.619,3.459,0.842,9.215-3.969,12.854C22.115,29.948,16.094,30.095,13.475,26.636z"/>
			<path style="fill:#6161FF;" d="M13.508,26.601c-2.609-3.447-0.842-9.18,3.953-12.807c4.789-3.628,10.791-3.772,13.398-0.328
				c2.609,3.446,0.838,9.178-3.951,12.805C22.113,29.899,16.115,30.046,13.508,26.601z"/>
			<path style="fill:#6363FF;" d="M13.539,26.564c-2.598-3.434-0.836-9.144,3.938-12.757c4.773-3.612,10.75-3.758,13.348-0.327
				c2.6,3.433,0.836,9.144-3.938,12.755C22.111,29.851,16.139,29.997,13.539,26.564z"/>
			<path style="fill:#6565FF;" d="M13.572,26.529c-2.588-3.42-0.834-9.109,3.922-12.707c4.754-3.6,10.707-3.744,13.295-0.326
				c2.59,3.418,0.832,9.107-3.922,12.705C22.111,29.803,16.16,29.948,13.572,26.529z"/>
			<path style="fill:#6767FF;" d="M13.604,26.492c-2.578-3.406-0.83-9.072,3.908-12.656c4.734-3.586,10.666-3.729,13.242-0.325
				c2.58,3.406,0.828,9.072-3.906,12.655C22.109,29.754,16.182,29.898,13.604,26.492z"/>
			<path style="fill:#6969FF;" d="M13.637,26.457c-2.568-3.393-0.828-9.037,3.891-12.607c4.717-3.572,10.625-3.714,13.191-0.324
				c2.568,3.393,0.826,9.037-3.891,12.606C22.109,29.705,16.205,29.85,13.637,26.457z"/>
			<path style="fill:#6B6BFF;" d="M13.668,26.421c-2.559-3.38-0.824-9.002,3.877-12.558c4.697-3.558,10.582-3.7,13.139-0.322
				c2.559,3.379,0.822,9.001-3.875,12.557C22.107,29.657,16.227,29.8,13.668,26.421z"/>
			<path style="fill:#6D6DFF;" d="M13.699,26.386c-2.547-3.366-0.82-8.966,3.863-12.509c4.678-3.543,10.539-3.686,13.086-0.321
				c2.551,3.366,0.82,8.966-3.859,12.507C22.105,29.608,16.248,29.752,13.699,26.386z"/>
			<path style="fill:#6F6FFF;" d="M13.732,26.351c-2.537-3.354-0.818-8.932,3.846-12.46c4.66-3.529,10.5-3.671,13.035-0.32
				c2.539,3.353,0.816,8.931-3.844,12.459C22.105,29.561,16.27,29.702,13.732,26.351z"/>
			<path style="fill:#7171FF;" d="M13.766,26.314c-2.529-3.34-0.814-8.896,3.83-12.41c4.643-3.516,10.457-3.656,12.984-0.318
				c2.527,3.339,0.812,8.895-3.83,12.409C22.104,29.512,16.293,29.653,13.766,26.314z"/>
			<path style="fill:#7373FF;" d="M13.797,26.278c-2.518-3.326-0.812-8.859,3.816-12.359c4.623-3.503,10.414-3.642,12.932-0.318
				c2.518,3.326,0.809,8.859-3.814,12.359C22.104,29.463,16.314,29.604,13.797,26.278z"/>
			<path style="fill:#7575FF;" d="M13.83,26.242c-2.508-3.312-0.809-8.824,3.799-12.311c4.605-3.487,10.373-3.627,12.881-0.315
				c2.508,3.312,0.807,8.823-3.799,12.31C22.102,29.415,16.336,29.555,13.83,26.242z"/>
			<path style="fill:#7777FF;" d="M13.861,26.207c-2.496-3.3-0.805-8.789,3.785-12.262c4.586-3.473,10.332-3.612,12.828-0.314
				c2.498,3.3,0.803,8.788-3.785,12.26C22.102,29.365,16.359,29.506,13.861,26.207z"/>
			<path style="fill:#7979FF;" d="M13.895,26.171c-2.488-3.286-0.803-8.753,3.77-12.211c4.568-3.46,10.289-3.598,12.775-0.314
				c2.488,3.286,0.799,8.754-3.768,12.211C22.1,29.317,16.381,29.457,13.895,26.171z"/>
			<path style="fill:#7B7BFF;" d="M13.926,26.136c-2.477-3.273-0.799-8.718,3.754-12.162c4.551-3.446,10.248-3.584,12.725-0.312
				c2.479,3.271,0.797,8.716-3.752,12.16C22.1,29.27,16.402,29.407,13.926,26.136z"/>
			<path style="fill:#7D7DFF;" d="M13.959,26.1c-2.469-3.26-0.797-8.683,3.738-12.112c4.531-3.432,10.205-3.568,12.672-0.311
				c2.469,3.259,0.793,8.682-3.738,12.11C22.098,29.22,16.426,29.358,13.959,26.1z"/>
			<path style="fill:#8080FF;" d="M13.99,26.063c-2.457-3.246-0.791-8.646,3.725-12.062c4.512-3.418,10.164-3.555,12.621-0.31
				s0.789,8.646-3.723,12.062C22.098,29.172,16.447,29.31,13.99,26.063z"/>
			<path style="fill:#8282FF;" d="M14.023,26.028c-2.447-3.233-0.789-8.611,3.707-12.014c4.494-3.403,10.123-3.54,12.57-0.309
				c2.447,3.232,0.787,8.611-3.709,12.013C22.096,29.123,16.469,29.261,14.023,26.028z"/>
			<path style="fill:#8484FF;" d="M14.055,25.992c-2.438-3.22-0.785-8.575,3.693-11.964c4.475-3.39,10.082-3.524,12.518-0.307
				c2.438,3.219,0.783,8.575-3.693,11.962C22.094,29.075,16.492,29.212,14.055,25.992z"/>
			<path style="fill:#8686FF;" d="M14.086,25.957c-2.426-3.207-0.781-8.541,3.678-11.915c4.457-3.375,10.041-3.51,12.467-0.306
				c2.428,3.206,0.779,8.54-3.678,11.913C22.094,29.026,16.514,29.162,14.086,25.957z"/>
			<path style="fill:#8888FF;" d="M14.119,25.921c-2.416-3.193-0.779-8.505,3.662-11.864c4.439-3.362,9.998-3.496,12.414-0.306
				c2.418,3.192,0.777,8.505-3.662,11.864C22.092,28.978,16.535,29.113,14.119,25.921z"/>
			<path style="fill:#8A8AFF;" d="M14.15,25.886c-2.406-3.181-0.775-8.47,3.648-11.816c4.42-3.347,9.955-3.481,12.361-0.303
				c2.408,3.179,0.773,8.469-3.646,11.814C22.092,28.93,16.557,29.064,14.15,25.886z"/>
			<path style="fill:#8C8CFF;" d="M14.184,25.85c-2.396-3.167-0.773-8.435,3.631-11.766c4.402-3.334,9.916-3.467,12.311-0.303
				c2.398,3.166,0.771,8.434-3.631,11.765C22.09,28.881,16.58,29.016,14.184,25.85z"/>
			<path style="fill:#8E8EFF;" d="M14.215,25.813c-2.385-3.153-0.77-8.398,3.617-11.717c4.383-3.318,9.873-3.451,12.258-0.3
				c2.389,3.152,0.768,8.397-3.615,11.715C22.09,28.832,16.602,28.966,14.215,25.813z"/>
			<path style="fill:#9090FF;" d="M14.248,25.778c-2.377-3.141-0.766-8.363,3.602-11.667c4.363-3.306,9.83-3.438,12.205-0.3
				c2.377,3.139,0.766,8.362-3.6,11.665C22.088,28.783,16.625,28.917,14.248,25.778z"/>
			<path style="fill:#9292FF;" d="M14.279,25.742c-2.365-3.126-0.762-8.327,3.586-11.617c4.346-3.291,9.789-3.423,12.156-0.298
				s0.76,8.326-3.586,11.615C22.086,28.735,16.646,28.868,14.279,25.742z"/>
			<path style="fill:#9494FF;" d="M14.312,25.706c-2.357-3.112-0.76-8.291,3.57-11.567c4.328-3.277,9.748-3.408,12.104-0.297
				c2.357,3.112,0.758,8.291-3.57,11.566C22.086,28.687,16.668,28.818,14.312,25.706z"/>
			<path style="fill:#9696FF;" d="M14.344,25.671c-2.346-3.1-0.756-8.257,3.557-11.519c4.309-3.263,9.705-3.394,12.051-0.295
				s0.754,8.255-3.555,11.516C22.084,28.638,16.691,28.77,14.344,25.671z"/>
			<path style="fill:#9898FF;" d="M14.377,25.635c-2.336-3.086-0.754-8.221,3.539-11.469c4.291-3.249,9.664-3.379,12-0.294
				c2.336,3.086,0.752,8.22-3.539,11.468C22.084,28.59,16.713,28.721,14.377,25.635z"/>
			<path style="fill:#9A9AFF;" d="M14.408,25.6c-2.326-3.073-0.75-8.186,3.525-11.42c4.271-3.234,9.623-3.364,11.947-0.293
				c2.326,3.072,0.748,8.185-3.523,11.418C22.082,28.541,16.734,28.672,14.408,25.6z"/>
			<path style="fill:#9C9CFF;" d="M14.441,25.563c-2.316-3.06-0.746-8.15,3.51-11.37c4.252-3.221,9.58-3.35,11.895-0.291
				c2.316,3.059,0.746,8.148-3.508,11.368C22.08,28.492,16.758,28.622,14.441,25.563z"/>
			<path style="fill:#9E9EFF;" d="M14.473,25.527c-2.305-3.046-0.742-8.114,3.494-11.319c4.236-3.207,9.539-3.336,11.844-0.291
				c2.307,3.046,0.742,8.114-3.492,11.318C22.08,28.444,16.779,28.573,14.473,25.527z"/>
			<path style="fill:#A0A0FF;" d="M14.506,25.492c-2.297-3.033-0.74-8.079,3.479-11.271c4.217-3.192,9.496-3.32,11.791-0.288
				c2.297,3.032,0.738,8.078-3.477,11.269C22.078,28.396,16.801,28.524,14.506,25.492z"/>
			<path style="fill:#A2A2FF;" d="M14.537,25.456c-2.285-3.02-0.736-8.043,3.465-11.221c4.197-3.18,9.455-3.307,11.74-0.288
				s0.734,8.042-3.465,11.22C22.078,28.347,16.822,28.475,14.537,25.456z"/>
			<path style="fill:#A5A5FF;" d="M14.57,25.421c-2.275-3.007-0.734-8.009,3.447-11.172c4.18-3.165,9.414-3.292,11.689-0.287
				c2.275,3.006,0.73,8.007-3.447,11.17C22.076,28.299,16.846,28.426,14.57,25.421z"/>
			<path style="fill:#A7A7FF;" d="M14.602,25.385c-2.266-2.993-0.73-7.973,3.434-11.122c4.16-3.151,9.371-3.277,11.637-0.285
				s0.729,7.971-3.434,11.12C22.076,28.25,16.867,28.377,14.602,25.385z"/>
			<path style="fill:#A9A9FF;" d="M14.635,25.349c-2.256-2.979-0.729-7.937,3.418-11.072c4.143-3.137,9.328-3.262,11.584-0.284
				c2.256,2.979,0.725,7.937-3.418,11.071C22.074,28.202,16.889,28.328,14.635,25.349z"/>
			<path style="fill:#ABABFF;" d="M14.666,25.313c-2.244-2.967-0.725-7.901,3.402-11.023c4.125-3.123,9.289-3.248,11.533-0.283
				c2.246,2.966,0.723,7.901-3.402,11.022C22.074,28.153,16.912,28.278,14.666,25.313z"/>
			<path style="fill:#ADADFF;" d="M14.699,25.277c-2.236-2.953-0.723-7.866,3.387-10.974c4.105-3.108,9.246-3.233,11.48-0.281
				c2.236,2.952,0.719,7.865-3.387,10.972C22.072,28.104,16.934,28.23,14.699,25.277z"/>
			<path style="fill:#AFAFFF;" d="M14.73,25.242c-2.225-2.94-0.717-7.831,3.373-10.925c4.086-3.095,9.203-3.219,11.428-0.28
				c2.227,2.939,0.717,7.83-3.371,10.923C22.07,28.057,16.955,28.181,14.73,25.242z"/>
			<path style="fill:#B1B1FF;" d="M14.764,25.206c-2.217-2.927-0.715-7.795,3.355-10.875c4.068-3.08,9.164-3.203,11.377-0.278
				c2.217,2.925,0.713,7.794-3.355,10.873C22.07,28.008,16.979,28.132,14.764,25.206z"/>
			<path style="fill:#B3B3FF;" d="M14.795,25.17c-2.205-2.913-0.711-7.76,3.342-10.824c4.049-3.067,9.121-3.189,11.324-0.278
				c2.207,2.912,0.711,7.759-3.34,10.823C22.068,27.959,17,28.083,14.795,25.17z"/>
			<path style="fill:#B5B5FF;" d="M14.828,25.135c-2.195-2.9-0.709-7.725,3.326-10.776c4.031-3.053,9.078-3.175,11.273-0.276
				c2.195,2.899,0.705,7.724-3.326,10.774C22.068,27.911,17.021,28.033,14.828,25.135z"/>
			<path style="fill:#B7B7FF;" d="M14.859,25.099c-2.186-2.887-0.705-7.688,3.311-10.726c4.014-3.039,9.037-3.161,11.223-0.275
				s0.703,7.688-3.311,10.725C22.066,27.862,17.045,27.984,14.859,25.099z"/>
			<path style="fill:#B9B9FF;" d="M14.893,25.062c-2.176-2.873-0.703-7.652,3.295-10.676c3.994-3.025,8.996-3.146,11.17-0.274
				c2.176,2.872,0.699,7.652-3.295,10.676C22.066,27.813,17.066,27.936,14.893,25.062z"/>
			<path style="fill:#BBBBFF;" d="M14.924,25.027c-2.164-2.86-0.697-7.617,3.281-10.627c3.975-3.011,8.953-3.131,11.117-0.273
				c2.166,2.859,0.695,7.617-3.279,10.626C22.064,27.765,17.088,27.887,14.924,25.027z"/>
			<path style="fill:#BDBDFF;" d="M14.955,24.991c-2.154-2.847-0.693-7.582,3.266-10.577c3.957-2.997,8.912-3.116,11.066-0.271
				c2.156,2.846,0.693,7.581-3.264,10.576C22.062,27.717,17.111,27.837,14.955,24.991z"/>
			<path style="fill:#BFBFFF;" d="M14.988,24.956c-2.145-2.834-0.691-7.547,3.25-10.528c3.939-2.982,8.871-3.102,11.014-0.271
				c2.146,2.833,0.691,7.546-3.248,10.526C22.062,27.668,17.133,27.788,14.988,24.956z"/>
			<path style="fill:#C1C1FF;" d="M15.021,24.92c-2.135-2.819-0.689-7.511,3.232-10.479c3.922-2.969,8.83-3.087,10.963-0.269
				c2.135,2.819,0.688,7.51-3.232,10.477C22.061,27.619,17.154,27.739,15.021,24.92z"/>
			<path style="fill:#C3C3FF;" d="M15.053,24.885c-2.125-2.807-0.686-7.476,3.219-10.43c3.902-2.954,8.787-3.072,10.91-0.268
				c2.125,2.806,0.684,7.475-3.217,10.428C22.061,27.571,17.178,27.69,15.053,24.885z"/>
			<path style="fill:#C5C5FF;" d="M15.084,24.849c-2.113-2.793-0.682-7.44,3.205-10.38c3.883-2.94,8.744-3.058,10.859-0.266
				c2.113,2.792,0.68,7.438-3.203,10.378C22.059,27.522,17.199,27.641,15.084,24.849z"/>
			<path style="fill:#C7C7FF;" d="M15.117,24.812c-2.104-2.779-0.68-7.404,3.188-10.33c3.865-2.926,8.705-3.043,10.809-0.265
				c2.104,2.779,0.676,7.403-3.188,10.328C22.057,27.474,17.221,27.592,15.117,24.812z"/>
			<path style="fill:#CACAFF;" d="M15.148,24.777c-2.094-2.767-0.676-7.369,3.174-10.281c3.846-2.912,8.662-3.028,10.756-0.263
				s0.674,7.368-3.172,10.278C22.057,27.426,17.244,27.543,15.148,24.777z"/>
			<path style="fill:#CCCCFF;" d="M15.182,24.741c-2.084-2.753-0.672-7.334,3.158-10.23c3.828-2.899,8.619-3.015,10.703-0.263
				s0.67,7.333-3.158,10.229C22.055,27.377,17.266,27.493,15.182,24.741z"/>
			<path style="fill:#CECEFF;" d="M15.213,24.706c-2.072-2.74-0.668-7.299,3.143-10.182c3.811-2.885,8.578-3,10.652-0.262
				c2.074,2.739,0.668,7.298-3.143,10.18C22.055,27.328,17.287,27.444,15.213,24.706z"/>
			<path style="fill:#D0D0FF;" d="M15.246,24.67c-2.064-2.727-0.666-7.263,3.127-10.132c3.791-2.871,8.537-2.985,10.6-0.26
				c2.064,2.726,0.664,7.262-3.127,10.13C22.053,27.28,17.311,27.396,15.246,24.67z"/>
			<path style="fill:#D2D2FF;" d="M15.277,24.634c-2.053-2.713-0.662-7.227,3.113-10.082c3.771-2.856,8.494-2.971,10.547-0.259
				c2.055,2.712,0.662,7.227-3.111,10.081C22.053,27.231,17.332,27.347,15.277,24.634z"/>
			<path style="fill:#D4D4FF;" d="M15.311,24.599c-2.045-2.7-0.66-7.192,3.096-10.033c3.754-2.843,8.453-2.956,10.498-0.257
				c2.043,2.698,0.656,7.19-3.098,10.031C22.051,27.183,17.354,27.297,15.311,24.599z"/>
			<path style="fill:#D6D6FF;" d="M15.342,24.562c-2.033-2.687-0.656-7.156,3.082-9.983c3.736-2.828,8.412-2.941,10.445-0.256
				s0.654,7.155-3.082,9.981C22.049,27.134,17.377,27.248,15.342,24.562z"/>
			<path style="fill:#D8D8FF;" d="M15.375,24.527c-2.023-2.674-0.654-7.121,3.066-9.935c3.717-2.814,8.369-2.927,10.393-0.255
				c2.023,2.673,0.65,7.12-3.066,9.933C22.049,27.086,17.398,27.199,15.375,24.527z"/>
			<path style="fill:#DADAFF;" d="M15.406,24.491c-2.014-2.66-0.648-7.085,3.051-9.885s8.328-2.912,10.342-0.253
				s0.648,7.084-3.051,9.882C22.047,27.037,17.42,27.15,15.406,24.491z"/>
			<path style="fill:#DCDCFF;" d="M15.439,24.455c-2.004-2.646-0.646-7.05,3.035-9.835c3.68-2.786,8.285-2.897,10.289-0.252
				s0.645,7.049-3.035,9.833C22.047,26.988,17.441,27.101,15.439,24.455z"/>
			<path style="fill:#DEDEFF;" d="M15.471,24.42c-1.992-2.634-0.643-7.015,3.021-9.786c3.66-2.771,8.244-2.883,10.236-0.25
				c1.994,2.632,0.641,7.013-3.02,9.783C22.045,26.94,17.465,27.052,15.471,24.42z"/>
			<path style="fill:#E0E0FF;" d="M15.504,24.384c-1.984-2.62-0.641-6.979,3.004-9.735c3.643-2.759,8.203-2.869,10.186-0.25
				c1.984,2.619,0.639,6.978-3.004,9.734C22.045,26.892,17.486,27.003,15.504,24.384z"/>
			<path style="fill:#E2E2FF;" d="M15.535,24.348c-1.973-2.606-0.637-6.942,2.99-9.686c3.625-2.744,8.16-2.854,10.133-0.249
				c1.975,2.606,0.635,6.942-2.988,9.685C22.043,26.844,17.508,26.954,15.535,24.348z"/>
			<path style="fill:#E4E4FF;" d="M15.568,24.312c-1.963-2.594-0.635-6.908,2.973-9.637c3.607-2.73,8.119-2.84,10.082-0.247
				c1.965,2.592,0.633,6.906-2.973,9.635C22.041,26.795,17.531,26.904,15.568,24.312z"/>
			<path style="fill:#E6E6FF;" d="M15.6,24.276c-1.953-2.58-0.631-6.872,2.959-9.587c3.588-2.717,8.078-2.824,10.031-0.246
				c1.953,2.579,0.627,6.871-2.959,9.586C22.041,26.746,17.553,26.855,15.6,24.276z"/>
			<path style="fill:#E8E8FF;" d="M15.633,24.241c-1.943-2.567-0.629-6.837,2.943-9.538c3.568-2.702,8.035-2.81,9.979-0.244
				s0.625,6.835-2.943,9.535C22.039,26.697,17.574,26.807,15.633,24.241z"/>
			<path style="fill:#EAEAFF;" d="M15.664,24.205c-1.932-2.554-0.623-6.801,2.928-9.488c3.551-2.688,7.994-2.795,9.928-0.243
				c1.932,2.552,0.621,6.8-2.928,9.486C22.039,26.649,17.598,26.758,15.664,24.205z"/>
			<path style="fill:#ECECFF;" d="M15.697,24.169c-1.924-2.539-0.621-6.766,2.912-9.438c3.531-2.674,7.953-2.78,9.875-0.242
				c1.922,2.539,0.619,6.766-2.912,9.438C22.037,26.601,17.619,26.708,15.697,24.169z"/>
			<path style="fill:#EFEFFF;" d="M15.729,24.134c-1.912-2.526-0.617-6.73,2.898-9.39c3.514-2.66,7.91-2.766,9.822-0.24
				s0.615,6.729-2.898,9.387C22.037,26.552,17.641,26.659,15.729,24.134z"/>
			<path style="fill:#F1F1FF;" d="M15.762,24.098c-1.904-2.513-0.615-6.694,2.881-9.34s7.869-2.751,9.771-0.239
				c1.902,2.513,0.613,6.694-2.883,9.338C22.035,26.504,17.664,26.61,15.762,24.098z"/>
			<path style="fill:#F3F3FF;" d="M15.793,24.062c-1.893-2.5-0.611-6.659,2.867-9.291c3.477-2.632,7.826-2.736,9.719-0.237
				c1.893,2.498,0.609,6.658-2.867,9.288C22.033,26.455,17.686,26.562,15.793,24.062z"/>
			<path style="fill:#F5F5FF;" d="M15.826,24.026c-1.883-2.486-0.609-6.624,2.852-9.24c3.457-2.618,7.785-2.723,9.666-0.237
				c1.883,2.485,0.607,6.623-2.852,9.239C22.033,26.406,17.707,26.512,15.826,24.026z"/>
			<path style="fill:#F7F7FF;" d="M15.857,23.99c-1.873-2.473-0.605-6.588,2.836-9.19c3.439-2.604,7.744-2.708,9.617-0.236
				c1.871,2.473,0.602,6.588-2.838,9.189C22.031,26.358,17.73,26.463,15.857,23.99z"/>
			<path style="fill:#F9F9FF;" d="M15.891,23.955c-1.863-2.46-0.602-6.553,2.82-9.142c3.42-2.59,7.701-2.693,9.564-0.234
				c1.861,2.459,0.6,6.552-2.822,9.14C22.031,26.31,17.752,26.414,15.891,23.955z"/>
			<path style="fill:#FBFBFF;" d="M15.922,23.919c-1.852-2.446-0.598-6.517,2.807-9.092c3.402-2.576,7.658-2.679,9.512-0.233
				c1.852,2.446,0.596,6.517-2.807,9.091C22.029,26.261,17.773,26.365,15.922,23.919z"/>
			<path style="fill:#FDFDFF;" d="M15.955,23.884c-1.844-2.434-0.596-6.482,2.789-9.043c3.385-2.562,7.619-2.664,9.461-0.231
				c1.842,2.432,0.594,6.48-2.791,9.04C22.029,26.213,17.797,26.315,15.955,23.884z"/>
			<path style="fill:#FFFFFF;" d="M28.17,14.624c1.832,2.419,0.59,6.445-2.775,8.991c-3.367,2.549-7.576,2.651-9.408,0.232
				c-1.832-2.42-0.592-6.446,2.775-8.993C22.127,12.307,26.338,12.205,28.17,14.624z"/>
		</g>
	</g>
</svg>
