/* XPM */
static char *freeimage[] = {
/* width height num_colors chars_per_pixel */
"32 32 132 2",
/* colors */
"   c #ffffff",
" . c #f8fbfd",
" X c #abd6ee",
" o c #62b2df",
" O c #2b97d4",
" + c #0886cd",
" @ c #0082cc",
" # c #0b87ce",
" $ c #2d98d5",
" % c #a9d5ed",
" & c #f7fbfd",
" * c #8fc8e8",
" = c #5db0de",
" - c #b9ddf1",
" ; c #59aede",
" : c #57addd",
" > c #f9fcfd",
" , c #89c5e7",
" < c #138bd0",
" 1 c #73bae3",
" 2 c #81c1e5",
" 3 c #fefefe",
" 4 c #eff7fb",
" 5 c #3fa1d8",
" 6 c #b5daf0",
" 7 c #48a5da",
" 8 c #d4e9f6",
" 9 c #2a97d4",
" 0 c #58addd",
" q c #148cd0",
" w c #43a3d9",
" e c #359cd6",
" r c #cae5f4",
" t c #e4f1f9",
" y c #97ccea",
" u c #3c9fd8",
" i c #8dc7e8",
" p c #c6e3f3",
" a c #0d88ce",
" s c #2192d2",
" d c #64b3e0",
" f c #77bce4",
" g c #bbddf1",
" h c #fdfefe",
" j c #fafcfe",
" k c #d7ebf7",
" l c #0e89cf",
" z c #9dcfeb",
" x c #4fa9dc",
" c c #2494d3",
" v c #0986ce",
" b c #d1e8f5",
" n c #2393d3",
" m c #2896d4",
" M c #91c9e9",
" N c #8bc6e7",
" B c #5fb1df",
" V c #83c2e6",
" C c #198ed1",
" Z c #9bceeb",
" A c #a3d1ec",
" S c #1f91d2",
" D c #b1d9ef",
" F c #76bce3",
" G c #0685cd",
" H c #0383cc",
" J c #2795d4",
" K c #c5e2f3",
" L c #67b4e0",
" P c #deeef8",
" I c #158cd0",
" U c #85c3e6",
" Y c #7fc0e5",
" T c #309ad5",
" R c #0584cd",
" E c #a1d0ec",
" W c #edf6fb",
" Q c #2695d3",
" ! c #e9f4fa",
" ~ c #108acf",
" ^ c #50a9dc",
" / c #168dd0",
" ( c #c7e3f3",
" ) c #eaf4fa",
" _ c #1d90d2",
" ` c #66b4e0",
" ' c #4ba7db",
" ] c #0785cd",
" [ c #cce6f4",
" { c #c1e0f2",
" } c #2293d3",
" | c #0c88ce",
".  c #e0eff8",
".. c #2996d4",
".X c #0182cc",
".o c #f5fafd",
".O c #60b1df",
".+ c #e8f3fa",
".@ c #c8e4f4",
".# c #95cbe9",
".$ c #6cb7e1",
".% c #51aadc",
".& c #cbe5f4",
".* c #9dceeb",
".= c #afd8ef",
".- c #5aaede",
".; c #a3d2ec",
".: c #daecf7",
".> c #eef6fb",
"., c #54abdd",
".< c #87c4e7",
".1 c #e1f0f9",
".2 c #b3daef",
".3 c #1b8fd1",
".4 c #dcedf8",
".5 c #d8ebf7",
".6 c #4da8db",
".7 c #a5d2ed",
".8 c #53abdc",
".9 c #6eb8e2",
".0 c #ecf5fb",
".q c #56acdd",
".w c #b9dcf1",
".e c #ddeef8",
".r c #42a2d9",
".t c #72bae3",
".y c #0a87ce",
".u c #f3f9fc",
".i c #5eb0df",
".p c #339bd6",
".a c #6bb6e1",
".s c #fcfdfe",
/* pixels */
"                                                                ",
"                                                                ",
"                                                                ",
"                                                                ",
"               . X o O + @ @ # $ o % &               * = - ;   :",
"           > , < @ @ @ @ @ @ @ @ @ @ 1 2 3             * 4 5 6 7",
"         8 9 @ @ @ @ @ @ @ @ @ @ @ 0 q w e r           * t y u i",
"       p a @ @ @ @ @ @ @ @ @ @ @ s d @ f @ + g         . h j & .",
"     k l @ @ @ @ @ @ @ @ @ @ @ + z @ x c @ @ v b                ",
"   j $ @ @ @ @ @ @ @ @ @ @ @ @ z n + y @ @ @ @ m j              ",
"   M @ @ @ @ @ @ @ @ @ @ @ @ N B @ V O @ @ @ @ @ M              ",
" > C @ @ @ @ @ @ @ @ @ @ @ 1 Z @ m A @ @ @ @ @ @ S h            ",
" D @ @ @ @ @ @ @ @ @ @ @ F r G H r J @ @ @ @ @ @ @ K            ",
" L @ @ @ @ @ @ @ @ @ @ V P I @ U M @ @ @ @ @ @ @ @ Y            ",
" T @ @ @ @ @ @ @ @ R E W Q @ 5 ! ~ @ @ @ @ @ @ @ @ ^            ",
" # @ @ @ @ @ @ @ / ( ) T @ _ ) ` @ @ @ @ @ @ @ @ @ T            ",
" @ @ @ @ @ @ @ ' ! ) O @ ] [ { @ @ @ @ @ @ @ @ @ @ }            ",
" @ @ @ @ @ | y  . .. @.X X.o n @ @ @ @ @ @ @ @ @ @ c            ",
" # @ @ @.O.+  .@ I @ @.#  .$ @ @ @ @ @ @ @ @ @ @ @ e            ",
" 9 @.%.&    .* + @ @ V  .= @ @ @ @ @ @ @ @ @ @ @ @.-            ",
".;.:    .>., @ @ @.<  .1 ~ @ @ @ @ @ @ @ @ @ @ @ @ M            ",
"      .2.3 @ @ @.<  .o T @ @ @ @ @ @ @ @ @ @ @ @ @.4            ",
"  .5.6 @ @ @ G.7   3.8 @ @ @ @ @ @ @ @ @ @ @ @ @ 5              ",
"  .9 @ @ @ q K     f @ @ @ @ @ @ @ @ @ @ @ @ @ @ g              ",
"  .0 q @ 5 t     i @ @ @ @ @ @ @ @ @ @ @ @ @ @.q                ",
"    .w U h    .* @ @ @ @ @ @ @ @ @ @ @ @ @ @ c.>                ",
"            .# @ @ @ @ @ @ @ @ @ @ @ @ @ @ }.e                  ",
"           z @ @ @ @ @ @ @ @ @ @ @ @ @ @.r.+                    ",
"           4.t.y @ @ @ @ @ @ @ @ @ @ } A 3                      ",
"              .u E.i O a @ @ l.p.a g.s                          ",
"                                                                ",
"                                                                "
};

