/* XPM */
static char *freeimage[] = {
/* width height num_colors chars_per_pixel */
"16 16 68 1",
/* colors */
"  c #ffffff",
". c #0082cc",
"X c #fdfefe",
"o c #a3d2ec",
"O c #42a2d9",
"+ c #0c88ce",
"@ c #0e89cf",
"# c #43a3d9",
"$ c #afd7ef",
"% c #fefefe",
"& c #eff7fb",
"* c #40a1d9",
"= c #45a4da",
"- c #399ed7",
"; c #3a9ed7",
": c #eaf4fa",
"> c #41a2d9",
", c #2494d3",
"< c #309ad5",
"1 c #54abdd",
"2 c #a7d3ed",
"3 c #198ed1",
"4 c #67b4e0",
"5 c #58addd",
"6 c #0785cd",
"7 c #a5d2ed",
"8 c #1a8fd1",
"9 c #91c9e9",
"0 c #1e91d2",
"q c #60b1df",
"w c #4ba7db",
"e c #0d88ce",
"r c #329bd6",
"t c #a9d4ed",
"y c #9fd0eb",
"u c #0182cc",
"i c #71b9e2",
"p c #b3d9ef",
"a c #0886cd",
"s c #95cbe9",
"d c #cde6f5",
"f c #93cae9",
"g c #0283cc",
"h c #7dbfe5",
"j c #7ec0e5",
"k c #2393d3",
"l c #d9ecf7",
"z c #e8f3fa",
"x c #4fa9dc",
"c c #77bce4",
"v c #bddef1",
"b c #5aaede",
"n c #cae5f4",
"m c #108acf",
"M c #bfdff2",
"N c #f9fcfd",
"B c #4ca7db",
"V c #c3e1f3",
"C c #e3f1f9",
"Z c #1d90d2",
"A c #56acdd",
"S c #e5f2f9",
"D c #2293d3",
"F c #50a9dc",
"G c #f5fafd",
"H c #0f89cf",
"J c #49a6da",
"K c #add7ee",
/* pixels */
"         ... . .",
"          .  ...",
"          .  . .",
"  XoO+.@#$%     ",
" &*.....=-;:    ",
"X>.....,<1.-X   ",
"2.....3456..7   ",
"=....890q...w   ",
"e...rt+yu...8   ",
"...ipasr....@   ",
"6*dfghj.....k   ",
"lzx.cvu.....b   ",
"n+uslm......M   ",
"NBVCZ......A    ",
"  SD......FG    ",
"  Ns;a.HJK      "
};

