<svg xmlns="http://www.w3.org/2000/svg" width="220" height="40" viewBox="0 0 220 40">
    <path fill="#FFF" fill-rule="evenodd" d="M29.877 8.474l-.857 2.304h-.383l-.862-2.308-.031 2.35h-.374L27.464 8h.51l.866 2.319L29.7 8h.501l.09 2.82h-.385l-.029-2.346zm-3.865-.113v2.46h-.377V8.36h-.987V8h2.35v.36h-.986zM8.68 25.606h9.007l4.5-7.796-4.5-7.803H8.68l-4.5 7.803 4.5 7.796zm14.546 3.408h5.587l2.791-4.836-2.791-4.841h-5.587l-2.792 4.841 2.792 4.836zM1.329 26.782h2.66l1.33-2.303-1.33-2.305H1.33L0 24.479l1.329 2.303zm198.272-12.948v11.56h3.352c3.57 0 5.902-2.404 5.902-5.732v-.048c0-3.327-2.332-5.78-5.902-5.78H199.6zm-2.987-2.72h6.339c5.343 0 9.034 3.667 9.034 8.451v.049c0 4.784-3.691 8.5-9.034 8.5h-6.339v-17zM177.962 20.9v-9.788h2.987v9.667c0 3.157 1.627 4.833 4.299 4.833 2.647 0 4.274-1.58 4.274-4.712v-9.788h2.988v9.642c0 5.076-2.866 7.626-7.31 7.626-4.421 0-7.238-2.55-7.238-7.48zm-6.485-1.239v-.048c0-3.303-2.405-6.048-5.78-6.048-3.376 0-5.732 2.696-5.732 6v.048c0 3.303 2.404 6.023 5.78 6.023 3.376 0 5.732-2.672 5.732-5.975zm-14.645 0v-.048c0-4.785 3.692-8.792 8.913-8.792 5.222 0 8.865 3.959 8.865 8.743v.049c0 4.784-3.692 8.791-8.913 8.791-5.222 0-8.865-3.958-8.865-8.743zm-13.31-8.549h2.988v14.28h8.938v2.721h-11.925v-17zm-18.676 8.55v-.05c0-4.832 3.619-8.791 8.768-8.791 3.133 0 5.027 1.093 6.654 2.647l-1.918 2.21c-1.36-1.262-2.818-2.113-4.76-2.113-3.23 0-5.61 2.672-5.61 6v.048c0 3.327 2.355 6.023 5.61 6.023 2.088 0 3.424-.826 4.881-2.186l1.919 1.943c-1.773 1.846-3.716 3.011-6.898 3.011-4.954 0-8.646-3.861-8.646-8.743zm-13.285 0v-.05c0-3.302-2.404-6.047-5.78-6.047-3.376 0-5.732 2.696-5.732 6v.048c0 3.303 2.405 6.023 5.78 6.023 3.376 0 5.732-2.672 5.732-5.975zm-14.644 0v-.05c0-4.784 3.691-8.791 8.913-8.791 5.221 0 8.864 3.959 8.864 8.743v.049c0 4.784-3.691 8.791-8.913 8.791s-8.864-3.958-8.864-8.743zm-17.439 0v-.05c0-4.832 3.619-8.791 8.767-8.791 3.134 0 5.028 1.093 6.655 2.647l-1.919 2.21c-1.36-1.262-2.817-2.113-4.76-2.113-3.23 0-5.61 2.672-5.61 6v.048c0 3.327 2.356 6.023 5.61 6.023 2.089 0 3.425-.826 4.882-2.186l1.919 1.943c-1.773 1.846-3.716 3.011-6.898 3.011-4.954 0-8.646-3.861-8.646-8.743zm-9.107 1.14h-4.736v4.664h4.954c2.04 0 3.28-.802 3.28-2.332v-.048c0-1.433-1.143-2.283-3.498-2.283zm2.55-4.88c0-1.337-1.069-2.162-2.988-2.162h-4.298v4.517h4.08c1.919 0 3.206-.753 3.206-2.307v-.049zm-10.225-4.81h7.626c1.943 0 3.473.535 4.445 1.506.753.753 1.141 1.676 1.141 2.817v.05c0 2.04-1.166 3.132-2.429 3.788 1.992.68 3.376 1.821 3.376 4.129v.048c0 3.036-2.501 4.663-6.29 4.663h-7.869v-17zm-7.528 17h2.987v-17h-2.987v17zm-11.731-14.23h-5.392v-2.77H51.84v2.77h-5.392v14.231h-3.011V13.882zM217.83 8.473l-.856 2.304h-.384l-.861-2.308-.032 2.35h-.373l.094-2.82h.509l.866 2.319.861-2.319h.5l.091 2.82h-.386l-.029-2.346zm-3.865-.113v2.46h-.376V8.36h-.987V8h2.35v.36h-.987z"/>
</svg>
