<?xml version="1.0" encoding="UTF-8" standalone="no"?>
<svg width="624px" height="619px" viewBox="0 0 624 619" version="1.1" xmlns="http://www.w3.org/2000/svg" xmlns:xlink="http://www.w3.org/1999/xlink">
    <!-- Generator: sketchtool 3.7 (28169) - http://www.bohemiancoding.com/sketch -->
    <title>67B0FEEB-5BF0-4865-B8A5-FCC2C7EB30F0</title>
    <desc>Created with sketchtool.</desc>
    <defs></defs>
    <g id="Main-Screens" stroke="none" stroke-width="1" fill="none" fill-rule="evenodd" opacity="0.80">
        <g id="StreamBase-Login" transform="translate(-715.000000, -202.000000)" fill="#FFFFFF">
            <g id="Logo" transform="translate(714.000000, 202.000000)">
                <g id="O" transform="translate(0.603466, 0.278853)">
                    <path d="M483.288969,43.8315617 C474.07515,38.441983 464.496427,33.514781 454.568005,29.1077528 C373.376926,177.039406 225.818982,353.017098 30.6411016,453.121659 C41.8922998,477.136351 56.1235451,498.824709 72.9547294,518.07114 C240.795239,408.41561 396.229022,224.982093 483.288969,43.8315617" id="Fill-1"></path>
                    <path d="M447.178704,25.9433621 C407.054499,9.34114779 361.578372,0.425946548 312.255552,0.425946548 C129.66685,0.425946548 0.673383103,134.356255 0.673383103,310.709628 C0.673383103,340.46068 4.0031296,368.492269 10.2673102,394.659902 C197.067609,322.312394 363.022783,162.806873 447.178704,25.9433621" id="Fill-2"></path>
                    <path d="M490.298161,47.9785029 C394.480525,271.884432 277.756945,430.335156 128.617752,566.620696 C178.98967,599.868473 241.707498,618.146803 312.255552,618.146803 C494.874662,618.146803 623.83772,483.277291 623.83772,306.923918 C623.83772,190.058201 572.933651,99.4323629 490.298161,47.9785029" id="Fill-3"></path>
                </g>
            </g>
        </g>
    </g>
</svg>