<?xml version="1.0" encoding="UTF-8" standalone="no"?>
<svg width="16px" height="16px" viewBox="0 0 16 16" version="1.1" xmlns="http://www.w3.org/2000/svg" xmlns:xlink="http://www.w3.org/1999/xlink">
    <!-- Generator: sketchtool 41.2 (35397) - http://www.bohemiancoding.com/sketch -->
    <title>F2848AB4-D1B1-42C4-9C98-320DC9E7B60F</title>
    <desc>Created with sketchtool.</desc>
    <defs></defs>
    <g id="Option-2---Modal" stroke="none" stroke-width="1" fill="none" fill-rule="evenodd">
        <g id="tc-cc-get-started-modal-large" transform="translate(-833.000000, -404.000000)" fill="#ffffff">
            <g id="tc-gen-cmpt-modal-late-breaking" transform="translate(240.000000, 169.000000)">
                <g id="tc-gen-cmpt-news-slot-1" transform="translate(228.000000, 166.000000)">
                    <g id="Group-2">
                        <g id="item-1">
                            <g id="Group-3">
                                <g id="item-1" transform="translate(0.000000, 48.000000)">
                                    <path d="M380.077231,26.5384615 L380.076923,26.5384615 C379.567077,26.5381538 379.153846,26.1252308 379.153846,25.6153846 L379.153846,24.1516923 L374.564923,28.7406154 L374.564,28.7393846 C374.397846,28.9003077 374.172308,29 373.923077,29 C373.413231,29 373,28.5867692 373,28.0769231 C373,27.8276923 373.1,27.6021538 373.260615,27.436 L373.259385,27.4350769 L377.848308,22.8461538 L376.384615,22.8461538 C375.874769,22.8461538 375.461538,22.4329231 375.461538,21.9230769 C375.461538,21.4132308 375.874769,21 376.384615,21 L380.076923,21 C380.586769,21 381,21.4132308 381,21.9230769 L381,25.6153846 C381,26.1252308 380.586769,26.5381538 380.077231,26.5384615 M372.692308,22.8461538 L366.846154,22.8461538 L366.846154,35.1538462 L379.153846,35.1538462 L379.153846,27.2055385 C379.426462,27.3643077 379.739077,27.4615385 380.076923,27.4615385 C380.415077,27.4615385 380.727385,27.3643077 381,27.2055385 L381,36.0769231 C381,36.5867692 380.586769,37 380.076923,37 L365.923077,37 C365.413231,37 365,36.5867692 365,36.0769231 L365,21.9230769 C365,21.4132308 365.413231,21 365.923077,21 L374.794462,21 C374.635692,21.2729231 374.538462,21.5852308 374.538462,21.9230769 C374.538462,22.2615385 374.635692,22.5735385 374.794462,22.8461538 L372.692308,22.8461538" id="ic-click-out"></path>
                                </g>
                            </g>
                        </g>
                    </g>
                </g>
            </g>
        </g>
    </g>
</svg>