<?xml version="1.0" encoding="UTF-8" standalone="no"?>
<svg width="24px" height="24px" viewBox="0 0 24 24" version="1.1" xmlns="http://www.w3.org/2000/svg" xmlns:xlink="http://www.w3.org/1999/xlink">
    <!-- Generator: sketchtool 3.7 (28169) - http://www.bohemiancoding.com/sketch -->
    <title>F86F3574-18E2-42F7-8751-9DD4A1106FEC</title>
    <desc>Created with sketchtool.</desc>
    <defs></defs>
    <g id="Explorations" stroke="none" stroke-width="1" fill="none" fill-rule="evenodd">
        <g id="Help" transform="translate(-1213.000000, -20.000000)" fill="#BABFD2">
            <g id="Header">
                <g id="Alert" transform="translate(1213.000000, 20.000000)">
                    <path d="M21.85664,18.4981254 C21.85664,19.0186579 21.3716268,19.4422361 20.7755972,19.4422361 L2.3165052,19.4422361 C1.72047558,19.4422361 1.23546244,19.0186579 1.23546244,18.4981254 L1.23546244,18.1585538 C1.23546244,17.6380213 1.72047558,17.2144432 2.3165052,17.2144432 L20.7755972,17.2144432 C21.3716268,17.2144432 21.85664,17.6380213 21.85664,18.1585538 L21.85664,18.4981254 Z M4.58237084,9.19127499 C4.58237084,6.48780442 6.69768472,4.20837441 9.5583445,3.54726573 L9.7224865,3.51427965 C10.214736,3.41547558 10.7152809,3.36553405 11.2105308,3.36553405 L11.9802333,3.36553405 C12.3939417,3.36553405 12.8148865,3.40083223 13.2312424,3.47034961 L13.8579825,3.57516516 C16.6612808,4.2695682 18.7215277,6.52356502 18.7215277,9.19127499 L18.7215277,16.0462122 L4.58237084,16.0462122 L4.58237084,9.19127499 Z M10.2020282,2.15260231 C10.2020282,1.59862128 10.7181048,1.1479144 11.3524342,1.1479144 L11.5792326,1.1479144 C12.213562,1.1479144 12.7296386,1.59862128 12.7296386,2.15260231 L12.7296386,2.30227275 C12.5010753,2.28485487 12.270394,2.27421918 12.0367123,2.27421918 L11.2671863,2.27421918 C10.9057209,2.27421918 10.5506094,2.29734025 10.2020282,2.33849577 L10.2020282,2.15260231 Z M13.1934721,21.0252592 C13.1934721,21.5792403 12.6773956,22.0299471 12.0428896,22.0299471 L11.0492128,22.0299471 C10.4148834,22.0299471 9.89880678,21.5792403 9.89880678,21.0252592 L9.89880678,20.557751 L13.1934721,20.557751 L13.1934721,21.0252592 Z M20.7755972,16.1354595 L19.9570052,16.1354595 L19.9570052,9.19127499 C19.9570052,5.95786931 17.4032733,3.23651844 13.9651161,2.48246302 L13.9651161,2.15260231 C13.9651161,1.00363887 12.8948396,0.0689307648 11.5792326,0.0689307648 L11.3524342,0.0689307648 C10.0368273,0.0689307648 8.9665508,1.00363887 8.9665508,2.15260231 L8.9665508,2.57278936 C5.71795111,3.43566799 3.34689339,6.07578681 3.34689339,9.19127499 L3.34689339,16.1354595 L2.3165052,16.1354595 C1.03919802,16.1354595 -1.50082451e-05,17.0430389 -1.50082451e-05,18.1585538 L-1.50082451e-05,18.4981254 C-1.50082451e-05,19.6136403 1.03919802,20.5212197 2.3165052,20.5212197 L8.66332934,20.5212197 L8.66332934,21.0252592 C8.66332934,22.1742227 9.7336058,23.1089308 11.0492128,23.1089308 L12.0428896,23.1089308 C13.3586731,23.1089308 14.4289496,22.1742227 14.4289496,21.0252592 L14.4289496,20.5212197 L20.7755972,20.5212197 C22.0529044,20.5212197 23.0921174,19.6136403 23.0921174,18.4981254 L23.0921174,18.1585538 C23.0921174,17.0430389 22.0529044,16.1354595 20.7755972,16.1354595 L20.7755972,16.1354595 Z" id="Fill-1"></path>
                </g>
            </g>
        </g>
    </g>
</svg>