<?xml version="1.0" encoding="UTF-8" standalone="no"?>
<svg width="24px" height="24px" viewBox="0 0 24 24" version="1.1" xmlns="http://www.w3.org/2000/svg" xmlns:xlink="http://www.w3.org/1999/xlink">
    <!-- Generator: sketchtool 3.7 (28169) - http://www.bohemiancoding.com/sketch -->
    <title>ECF4F72F-BBAE-4ECA-B348-79EAB2B39660</title>
    <desc>Created with sketchtool.</desc>
    <defs></defs>
    <g id="Explorations" stroke="none" stroke-width="1" fill="none" fill-rule="evenodd">
        <g id="Welcome-1" transform="translate(-1324.000000, -20.000000)" fill="#BABFD2">
            <g id="Header">
                <g id="Help" transform="translate(1324.000000, 20.000000)">
                    <path d="M12,24 C18.627417,24 24,18.627417 24,12 C24,5.372583 18.627417,0 12,0 C5.372583,0 0,5.372583 0,12 C0,18.627417 5.372583,24 12,24 L12,24 Z M12,22.3047619 C6.30883715,22.3047619 1.6952381,17.6911629 1.6952381,12 C1.6952381,6.30883715 6.30883715,1.6952381 12,1.6952381 C17.6911629,1.6952381 22.3047619,6.30883715 22.3047619,12 C22.3047619,17.6911629 17.6911629,22.3047619 12,22.3047619 Z M10.7547429,13.5963429 C10.7547429,13.2671984 10.7986281,12.9874297 10.8864,12.7570286 C10.9741719,12.5266274 11.1222847,12.3126867 11.3307429,12.1152 C11.6379444,11.8189699 11.9204559,11.561144 12.1782857,11.3417143 C12.4361156,11.1222846 12.6582848,10.9165724 12.8448,10.7245714 C13.0313152,10.5325705 13.1766852,10.3515437 13.2809143,10.1814857 C13.3851434,10.0114277 13.4372571,9.83314379 13.4372571,9.64662857 C13.4372571,9.28456962 13.3248011,9.00205816 13.0998857,8.79908571 C12.8749703,8.59611327 12.5924588,8.49462857 12.2523429,8.49462857 C11.7366831,8.49462857 11.3444585,8.63725572 11.0756571,8.92251429 C10.8068558,9.20777285 10.6560002,9.5533694 10.6230857,9.95931429 L8.08868571,9.79474286 C8.20937203,8.63176561 8.63725347,7.74583162 9.37234286,7.13691429 C10.1074322,6.52799696 11.0509657,6.22354286 12.2029714,6.22354286 C12.7076597,6.22354286 13.1821692,6.2921136 13.6265143,6.42925714 C14.0708594,6.56640069 14.463084,6.77211291 14.8032,7.0464 C15.143316,7.32068709 15.4121133,7.66079797 15.6096,8.06674286 C15.8070867,8.47268774 15.9058286,8.9389688 15.9058286,9.4656 C15.9058286,9.78377302 15.8729146,10.0717701 15.8070857,10.3296 C15.7412568,10.5874299 15.6288008,10.842513 15.4697143,11.0948571 C15.3106278,11.3472013 15.1021727,11.6022844 14.8443429,11.8601143 C14.586513,12.1179441 14.2601163,12.4004556 13.8651429,12.7076571 C13.6127987,12.9051438 13.4427433,13.0971419 13.3549714,13.2836571 C13.2671996,13.4701724 13.2233143,13.6566848 13.2233143,13.8432 L13.2233143,14.3204571 L10.7547429,14.3204571 L10.7547429,13.5963429 Z M10.4749714,16.7561143 C10.4749714,16.5476561 10.513371,16.3501724 10.5901714,16.1636571 C10.6669718,15.9771419 10.7739422,15.815315 10.9110857,15.6781714 C11.0482293,15.5410279 11.2100562,15.4340575 11.3965714,15.3572571 C11.5830866,15.2804568 11.7805704,15.2420571 11.9890286,15.2420571 C12.1974868,15.2420571 12.3949705,15.2804568 12.5814857,15.3572571 C12.7680009,15.4340575 12.9298279,15.5410279 13.0669714,15.6781714 C13.204115,15.815315 13.3110853,15.9771419 13.3878857,16.1636571 C13.4646861,16.3501724 13.5030857,16.5476561 13.5030857,16.7561143 C13.5030857,16.9645725 13.4646861,17.1620562 13.3878857,17.3485714 C13.3110853,17.5350866 13.204115,17.6969136 13.0669714,17.8340571 C12.9298279,17.9712007 12.7680009,18.078171 12.5814857,18.1549714 C12.3949705,18.2317718 12.1974868,18.2701714 11.9890286,18.2701714 C11.7805704,18.2701714 11.5830866,18.2317718 11.3965714,18.1549714 C11.2100562,18.078171 11.0482293,17.9712007 10.9110857,17.8340571 C10.7739422,17.6969136 10.6669718,17.5350866 10.5901714,17.3485714 C10.513371,17.1620562 10.4749714,16.9645725 10.4749714,16.7561143 L10.4749714,16.7561143 Z" id="Shape"></path>
                </g>
            </g>
        </g>
    </g>
</svg>