<?xml version="1.0" encoding="UTF-8" standalone="no"?>
<svg width="23px" height="18px" viewBox="0 0 23 18" version="1.1" xmlns="http://www.w3.org/2000/svg" xmlns:xlink="http://www.w3.org/1999/xlink">
    <!-- Generator: sketchtool 3.7 (28169) - http://www.bohemiancoding.com/sketch -->
    <title>F3DCFBEB-F6D4-48E6-98B9-04BFC86ECDDD</title>
    <desc>Created with sketchtool.</desc>
    <defs></defs>
    <g id="Explorations" stroke="none" stroke-width="1" fill="none" fill-rule="evenodd">
        <g id="Welcome-1" transform="translate(-1391.000000, -23.000000)" fill="#BABFD2">
            <g id="Header">
                <g id="Hamburger" transform="translate(1391.000000, 23.000000)">
                    <path d="M21.4436216,15.0668333 L1.49402727,15.0668333 C1.10608636,15.0668333 0.791106818,15.2433333 0.791106818,15.4613333 L0.791106818,16.6723333 C0.791106818,16.8903333 1.10608636,17.0668333 1.49402727,17.0668333 L21.4436216,17.0668333 C21.8315625,17.0668333 22.1456523,16.8903333 22.1456523,16.6723333 L22.1456523,15.4613333 C22.1456523,15.2433333 21.8315625,15.0668333 21.4436216,15.0668333 M21.4436216,7.86683333 L1.49402727,7.86683333 C1.10608636,7.86683333 0.791106818,8.04333333 0.791106818,8.26133333 L0.791106818,9.47233333 C0.791106818,9.69033333 1.10608636,9.86683333 1.49402727,9.86683333 L21.4436216,9.86683333 C21.8315625,9.86683333 22.1456523,9.69033333 22.1456523,9.47233333 L22.1456523,8.26133333 C22.1456523,8.04333333 21.8315625,7.86683333 21.4436216,7.86683333 M21.4436216,2.66683333 L1.49402727,2.66683333 C1.10608636,2.66683333 0.791106818,2.49033333 0.791106818,2.27233333 L0.791106818,1.06133333 C0.791106818,0.843333333 1.10608636,0.666833333 1.49402727,0.666833333 L21.4436216,0.666833333 C21.8315625,0.666833333 22.1456523,0.843333333 22.1456523,1.06133333 L22.1456523,2.27233333 C22.1456523,2.49033333 21.8315625,2.66683333 21.4436216,2.66683333" id="Fill-1"></path>
                </g>
            </g>
        </g>
    </g>
</svg>